<svg xmlns="http://www.w3.org/2000/svg" viewBox="0 0 1225.55 827.08"><defs><style>.cls-1{opacity:0.1;}.cls-2{fill:#fff;}</style></defs><g id="Layer_2" data-name="Layer 2"><g id="Layer_1-2" data-name="Layer 1"><g id="Layer_2-2" data-name="Layer 2" class="cls-1"><g id="Layer_1-2-2" data-name="Layer 1-2"><path class="cls-2" d="M528.84,827.08q-36.47,0-73.74-2.35c-139.66-8.88-229.32-53-274.11-134.93-38.8-71-38.18-159.28-37.63-237.2.36-52,.71-101.13-11.08-136.81C93,197,49.81,170.6,24,154.81,9,145.66-.86,139.62.06,121c.9-18.27,67.71-41.6,210.25-73.42,61.65-13.76,109.53-1.88,148,7.67,19.27,4.78,35.94,8.92,50.57,8.87h0c40.26-.12,51.26-4.52,75.35-14.17,20.1-8,50.46-20.2,115.51-36.55C656.92-1,746.19-4,832.74,5.45c49.25,5.4,96,14.49,139,27,48.1,14,90.32,32.08,125.5,53.68,65.17,40,105.26,91.34,119.17,152.59,13.71,60.34,12,122.07-5.16,183.48-17,61-48.33,118.57-93.09,171.11C1053,669.81,961.81,731.49,854.45,771.7c-57.23,21.43-119.16,36.86-184.07,45.86A1037.32,1037.32,0,0,1,528.84,827.08ZM266.32,43.8A253,253,0,0,0,210.86,50C146,64.46,97.77,77,63.32,88.19,13.63,104.41,2.85,115,2.55,121.09c-.85,17.17,7.53,22.29,22.73,31.59,26.12,16,69.84,42.71,109.37,162.31,11.92,36.07,11.57,85.39,11.2,137.61-.55,77.61-1.17,165.58,37.33,236,44.34,81.09,133.34,124.81,272.08,133.63,74.22,4.76,146.48,2.33,214.74-7.14,64.73-9,126.49-24.36,183.55-45.73,107-40.06,197.78-101.49,262.65-177.65,44.52-52.27,75.67-109.53,92.59-170.17,17-61,18.74-122.33,5.13-182.26-13.76-60.57-53.47-111.38-118-151-35-21.48-77-39.44-124.9-53.4C928.19,22.37,881.57,13.31,832.47,7.93,746.2-1.53,657.26,1.48,600.36,15.79,535.47,32.1,505.2,44.22,485.17,52.24c-24.4,9.76-35.54,14.22-76.28,14.34h-.21c-14.91,0-31.62-4.14-51-8.94C331.93,51.24,301.89,43.79,266.32,43.8Z"/><path class="cls-2" d="M541.21,781.66q-29.49,0-59.56-1.69c-126.14-6.84-208.19-45.1-250.84-117-37-62.4-39.1-141.09-40.92-210.5-1.26-48.36-2.46-94-15.33-127.35C135,218.52,93.52,192.56,68.74,177.05c-15-9.37-24.87-15.56-24.22-33.67.19-10.23,18.56-22.55,54.59-36.61C131.53,94.13,177,80.6,230.54,67.65c55.93-13.75,99.59-4.4,134.66,3.11,17,3.63,31.6,6.77,44.83,6.78h0c42,.1,52.34-3.22,83.18-13,20.73-6.59,49.1-15.61,101.4-28.32,53.57-13,136.86-15.76,217.36-7.12C858,34,901.65,42.35,941.65,53.85c44.88,12.89,84.19,29.54,116.84,49.47,58.9,36,95.45,82,108.65,136.89,13.14,55.23,12.16,111.81-2.92,168.18-15,56-43.09,108.94-83.55,157.29-58.46,69.86-140.59,126.44-237.51,163.6-51.68,19.81-107.68,34.21-166.43,42.79A944,944,0,0,1,541.21,781.66ZM288,63a237,237,0,0,0-56.93,7C117.79,97.32,47.2,125.49,46.86,143.44c-.6,16.78,8.33,22.37,23.13,31.63C95,190.73,136.92,217,176.75,324.35c13,33.68,14.21,79.55,15.48,128.11C194,521.6,196.09,600,232.83,661.84,275,733,356.47,770.83,481.78,777.63c67.33,3.8,132.81,1.15,194.61-7.88,58.61-8.56,114.41-22.91,165.93-42.66,96.55-37,178.35-93.35,236.55-162.92,40.24-48.08,68.2-100.7,83.09-156.39,15-56,16-112.18,2.9-167-13-54.25-49.24-99.81-107.6-135.44C1014.14,79,936.53,44.8,811.72,31.41c-80.25-8.61-163.23-5.9-216.56,7.07C543,51.16,514.61,60.17,493.92,66.75,463.67,76.37,452.32,80,410,79.88c-13.48,0-28.23-3.17-45.32-6.83C342.81,68.36,317.54,63,288,63Z"/><path class="cls-2" d="M554.24,736.31q-22.77,0-46.05-1.1C395.48,730.38,321.05,697.93,280.65,636c-35.2-53.94-39.85-123-43.95-184-3-44.53-5.82-86.59-19.85-117.47C177.11,240,137.41,214.62,113.69,199.44c-15.1-9.66-25.07-16-24.71-33.65-.27-24,83.68-57.32,161.79-78,50.48-13.88,90.08-7,121.9-1.49C387.1,88.81,399.56,91,411.18,91h0c47.65.37,56.38-1.84,104.88-14.07,18.26-4.6,41-10.33,73.41-17.89,33.14-7.74,79-11.55,129-10.73,56.34.93,113.08,7.65,164.1,19.46,60.37,14,110.73,34.39,149.69,60.69,45.38,30.64,74.18,68.74,85.61,113.25,12.58,50.11,12.36,101.55-.66,152.89-12.94,51-37.85,99.32-74,143.49-51.79,63.24-124.88,114.69-211.37,148.8C748.64,719.69,655.43,736.27,554.24,736.31ZM310.69,81.8a221.68,221.68,0,0,0-59.35,8.07c-93,24.67-160.39,56.6-160.17,75.93-.34,16.42,8.71,22.21,23.7,31.8,23.94,15.31,64,40.94,104,136.09,14.19,31.22,17,73.47,20,118.21,4.08,60.69,8.71,129.47,43.6,182.93,40,61.27,113.84,93.39,225.8,98.2C627,738.68,735.63,722.46,831,684.84c86.15-34,158.93-85.2,210.48-148.15,36-43.92,60.72-91.91,73.58-142.64,12.93-51,13.15-102.06.66-151.81-11.28-44-39.78-81.64-84.71-112-38.73-26.15-88.85-46.47-149-60.38-50.8-11.74-107.39-18.44-163.57-19.37-49.89-.81-95.53,3-128.51,10.68-32.4,7.55-55.11,13.27-73.36,17.88-48.73,12.28-57.51,14.49-105.44,14.13-11.8-.06-24.34-2.24-38.87-4.76C354.41,85.32,334.05,81.79,310.69,81.8Z"/><path class="cls-2" d="M566.43,691q-15.7,0-31.69-.58c-99.4-2.86-166.21-29.59-204.24-81.73-33.26-45.59-40.08-102.58-46.67-157.68-4.84-40.49-9.41-78.73-24.7-107.09C219.44,261.54,183,237.77,158.89,222c-15.91-10.39-25.51-16.65-25.45-33.84-.9-22,59.53-57.27,137.56-80.35,45.54-14.25,81.41-9.78,110.24-6.18,11,1.37,21.45,2.67,31.08,2.77h0l4.87.07c56.11.82,60.69.88,167.12-22.64,29.91-6.64,72.77-10.09,117.58-9.49,51.55.69,103.39,6.48,149.91,16.74,55.29,12.19,101.48,30.15,137.3,53.38,41.79,27.1,68.55,61,79.54,100.68,12,45,12.59,91.31,1.63,137.64-10.9,46.08-32.59,89.72-64.47,129.71-45.13,56.61-109.18,102.94-185.25,134C744.91,675.39,659.55,691,566.43,691ZM335,100.1a208.93,208.93,0,0,0-63.42,9.7c-75.9,22.46-137,57.6-136.11,78.36-.06,16.13,9.19,22.16,24.52,32.17,22.84,14.89,61,39.81,101,122.66,15.45,28.66,20,67.09,24.91,107.77,6.56,54.85,13.34,111.56,46.29,156.73,37.63,51.59,103.92,78,202.65,80.89,105.22,3.85,201.1-11.56,285-45.8,75.74-30.91,139.52-77,184.43-133.36,31.69-39.75,53.25-83.12,64.07-128.91,10.88-46,10.34-92-1.6-136.63-10.86-39.21-37.33-72.69-78.69-99.51-35.61-23.1-81.58-41-136.63-53.1-46.39-10.22-98.09-16-149.5-16.69-44.66-.61-87.35,2.84-117.1,9.44-106.67,23.57-111.28,23.51-167.59,22.69l-4.88-.07c-9.75-.1-20.22-1.41-31.31-2.79C367.34,102,352.11,100.09,335,100.1Z"/><path class="cls-2" d="M578.56,645.89c-5.73,0-11.48-.06-17.28-.19C368,643.64,348.53,540.43,331.33,449.37c-6.82-36.16-13.27-70.31-29.9-96-39.34-70.23-74-93.21-96.94-108.41-16.42-10.89-26.33-17.46-26.59-34.33-.75-10.66,10.5-25.6,30.87-40.92,21.62-16.27,50.9-31.09,82.45-41.72,41.78-15.28,73.28-13.11,101.11-11.2,7.39.51,14.36,1,21.14,1.1h0c10.2.23,19.09.61,26.93,1,36.22,1.57,58.07,2.52,138.78-14.14C630.65,94,728.29,91.26,821,110.48c50.2,10.4,92.22,25.9,124.9,46.07,38.2,23.56,62.92,53.21,73.48,88.11a248.68,248.68,0,0,1,4,122.41c-8.85,41.15-27.33,80.17-54.92,116-38.48,50-93.53,91.16-159.18,119.12C741.21,631.18,663.67,645.86,578.56,645.89ZM362,117.34a197.66,197.66,0,0,0-70.16,12.4c-67.77,22.86-113.44,60.92-112.06,80.78.25,15.93,9.85,22.29,25.75,32.83,23.09,15.31,58,38.44,97.52,109,16.8,26,23.28,60.3,30.14,96.65,8.71,46.12,17.71,93.81,48.6,130.83,35.13,42.13,93.85,63,179.52,64,91.66,2.06,174.83-12.52,247.21-43.36,65.35-27.83,120.14-68.82,158.42-118.53,27.42-35.6,45.78-74.38,54.57-115.24a246.84,246.84,0,0,0-3.91-121.48c-13.55-44.8-58.73-104.22-197-132.87-92.48-19.16-189.8-16.43-241.08-5.78-80.94,16.71-102.89,15.76-139.25,14.18-7.83-.34-16.7-.73-26.88-1h0c-6.83-.11-13.83-.59-21.24-1.1C382.66,118,372.68,117.33,362,117.34Z"/><path class="cls-2" d="M581.61,601c-70,0-119.63-15.72-151.51-48.07-29-29.42-40.12-68.43-50.87-106.16-9-31.44-17.42-61.14-35.5-84-38.5-58-71.29-79.91-93-94.44C233.42,256.71,223,249.71,222.36,233c-2.22-22.51,35.4-63.65,89.07-85,41.42-18.3,71.16-17.54,99.92-16.8l3.27.09c13.86.42,25.47,1.54,36.7,2.62,30.1,2.91,58.53,5.65,122.72-6.44,46.77-8.88,134.37-11.32,216.21,4.31,69,13.18,156.17,43.7,179.91,114.3,22,69.61,7.77,146-39,209.59C899.27,499,853.22,535.08,798,560c-60.4,27.18-130.17,41-207.39,41h-9ZM394,132.71c-23.51,0-49,2.42-81.9,17-57.37,22.76-89.92,63.81-88,83.22.59,15.87,10.76,22.68,27.61,34,21.82,14.6,54.79,36.66,93.44,94.86,18.24,23.11,26.75,53,35.76,84.57,10.69,37.52,21.75,76.32,50.44,105.42,32.46,32.94,83.63,48.46,156.48,47.5h2.74c77,0,146.52-13.77,206.7-40.85,55-24.74,100.79-60.59,132.48-103.66,23.16-31.48,38.31-65.67,45-101.64a217,217,0,0,0-6.27-106.38c-23.48-69.86-110-100.11-178.56-113.2C708.31,118,621,120.39,574.37,129.24c-64.45,12.13-93,9.38-123.22,6.46-11.2-1.08-22.78-2.19-36.58-2.62l-3.26-.08C405.61,132.85,399.87,132.71,394,132.71Z"/><path class="cls-2" d="M595.72,556.64c-51.22,0-89.31-10.67-116.07-32.49s-39.64-52-52.21-81.32c-10.74-25-21.85-50.91-41.4-70.73-36.83-45.55-67.55-66.06-87.87-79.63-18.91-12.63-30.32-20.25-31.35-37.05-2.7-21.29,21.21-65.9,64.82-87.24,30.73-17.34,55.89-24.34,84.12-23.38h0c15,.62,28,2.67,41.69,4.85,29,4.6,59,9.36,111.44.71,42.31-7.07,120-9.2,190.56,2.84,61.16,10.44,138.81,35.29,161.46,94.42,21.1,59.61,11.27,125.56-27,181-25.29,36.64-62.38,67.5-107.26,89.23-49.64,24-107.62,37-172.32,38.38Q604.78,556.62,595.72,556.64Zm-185-410.34c-25.92,0-49.65,7.11-78.31,23.28-43,21.06-66.63,64.81-64,85.69,1,16.06,11.52,23.1,30.65,35.88,20.4,13.62,51.24,34.22,88.17,79.89,19.71,20,30.88,46,41.68,71.17,12.5,29.12,25.42,59.23,51.76,80.71,29.59,24.13,73.31,34.49,133.67,31.68,64.49-1.43,122.24-14.29,171.68-38.23,44.63-21.61,81.51-52.28,106.64-88.7,38-55,47.7-120.39,26.78-179.5-22.38-58.41-99.49-83-160.24-93.4-70.38-12-147.84-9.89-190-2.84-52.66,8.69-82.8,3.91-112-.71-13.69-2.17-26.61-4.22-41.51-4.84-1.74,0-3.39-.08-5.05-.08Z"/><path class="cls-2" d="M609.09,513.06c-82.52,0-107.43-37.08-133.64-76.13-12.93-19.26-26.29-39.17-47.1-55.46-33.58-32.85-60.57-50.44-80.27-63.28-22.73-14.81-35.25-23-36.8-40.37-1.8-11.63,1-28.92,7.18-45.07,7.54-19.52,19.38-35.3,33.37-44.44,22.32-17.68,41.33-31.15,65.08-30.06h0c15,.82,29.5,4.05,44.88,7.48,27.75,6.19,59.21,13.21,102,7.47,29.6-4.06,97.66-8.33,164.91,1.37,35,5,64.49,13.16,87.71,24.12,27.42,13,46,29.91,55.27,50.4C892.07,298.78,886.73,354.4,857,401.71c-18.79,29.94-47,55.57-81.54,74.12C737.28,496.35,692,508.32,641,511.42,629.45,512.53,618.87,513.05,609.09,513.06ZM414.22,159.62c-22.05,0-40.25,13-61.55,29.86-32,20.89-43,68.49-40,88.17,1.5,16.75,13.81,24.77,36.16,39.34,19.76,12.87,46.81,30.5,80.43,63.4,20.93,16.38,34.36,36.39,47.35,55.74,14.81,22.06,28.8,42.9,52.69,57.19,26.93,16.1,62.35,21.4,111.5,16.67,50.87-3.09,95.94-15,134-35.42,34.34-18.43,62.35-43.89,81-73.62,29.44-47,34.74-102.06,14.55-151.29-9.1-20.15-27.47-36.87-54.58-49.67-23.08-10.9-52.46-19-87.3-24-67.09-9.68-135-5.41-164.51-1.37-43,5.77-74.61-1.27-102.48-7.49-15.31-3.41-29.78-6.64-44.64-7.45C416,159.64,415.09,159.62,414.22,159.62Z"/><path class="cls-2" d="M621.1,471.24c-49.84,0-72.88-19.76-100.5-43.47-14.42-12.37-29.33-25.17-49.94-37-26.69-19.46-48.48-32.65-66-43.24-30-18.18-46.59-28.19-48.92-47.35-3.88-21.36-3.13-71.86,16.22-91.7l3.41-4.69c11.85-16.35,24.11-33.27,42.69-32.13h0c14.46,1,30.55,5.65,47.59,10.55,27.58,7.92,58.83,16.91,93,13.78,37-3.5,223.4-17.34,263.78,54.52,20,39.87,19.32,85.35-1.79,124.82-12.6,23.54-31.51,43.34-56.2,58.84-26.91,16.89-59.52,27.81-96.91,32.45C649.72,469.81,634.45,471.24,621.1,471.24ZM416.3,172.93c-17,0-28.61,16.09-39.89,31.66-1.14,1.58-2.29,3.16-3.44,4.72l-.06.07C353.86,228.87,353.16,278.84,357,300c2.26,18.57,18.62,28.47,48.32,46.44,17.53,10.61,39.35,23.81,66,43.27,20.65,11.8,35.61,24.64,50.07,37.06,34.77,29.83,62.23,53.4,145.88,38.59,37.24-4.63,69.67-15.48,96.43-32.27,24.5-15.38,43.26-35,55.75-58.36,20.91-39.09,21.56-84.14,1.78-123.61-16.09-28.63-57.65-46.79-123.52-54-58-6.3-116.52-2-139,.11-34.39,3.14-65.77-5.87-93.45-13.83-17-4.87-33-9.48-47.33-10.5C417.41,173,416.85,172.93,416.3,172.93Z"/><path class="cls-2" d="M628.53,434.45c-29.47,0-53.12-9.49-85.82-22.62-9.3-3.73-18.9-7.59-29.74-11.69-7.77-3.8-15.05-7.33-21.91-10.65-59.66-28.93-86.9-42.13-90.86-66.86-3.82-18.34-15.47-74.2-8.06-93.83,3.94-21.05,10.61-45,27.06-43.65h0c13.72,1.26,31.73,7.59,50.81,14.29,26.9,9.45,57.39,20.15,83.48,19.43,5-.16,10.91-.44,17.79-.76,28.18-1.33,70.77-3.32,110.05.23,47,4.25,77.88,15.58,91.79,33.66,20,29.71,24.7,66.32,12.52,98-13.51,35.1-46,60.64-91.56,71.92C667.57,430.73,646.92,434.44,628.53,434.45ZM417.9,186.23c-14.72,0-20.9,22.78-24.66,42.83v.09c-7.33,19.29,4.28,75,8.1,93.27,3.87,24.18,30.94,37.3,90.23,66.05l21.87,10.63c10.8,4.09,20.41,7.95,29.71,11.68,52.85,21.22,82,32.91,150.65,10,45.2-11.2,77.44-36.49,90.81-71.23,12-31.31,7.42-67.53-12.38-96.9-13.68-17.8-44.3-29-91-33.2-39.2-3.55-81.75-1.55-109.9-.23-6.88.32-12.83.6-17.8.76-26.32.73-56.9-10-83.9-19.49-19-6.67-36.95-13-50.53-14.23Z"/><path class="cls-2" d="M611.41,415.55c-17.14,0-35.75-2-56.15-6.1C483.2,390.86,450.13,371.59,444.66,345,441.8,332.8,433.4,309.43,426,288.81c-5.86-16.33-11.41-31.75-13.55-39.74-2.59-6.79-4.2-16.29-4.27-25.36-.09-9.94,1.62-17.68,4.81-21.8a7.82,7.82,0,0,1,7.37-3.34h0c13,1.57,34,10.26,56.17,19.47,26.34,10.94,53.59,22.25,71.86,23.63,9.94.72,25.66-.15,43.87-1.16,45.19-2.5,107.1-5.92,131.56,12.9,21.93,19.43,34,47.17,31.66,72.43-2,21.21-14,38.92-34.74,51.21-23.6,18-45.81,28.9-69.86,34.32A180.51,180.51,0,0,1,611.41,415.55Zm-192-216a6.92,6.92,0,0,0-5.64,3c-6.51,8.4-5.65,32.45-.38,46.25,2.14,8,7.68,23.4,13.54,39.71,7.41,20.64,15.82,44,18.7,56.3C451,371,483.86,390,555.48,408.49c37,7.4,68.15,8,95.19,1.95,23.9-5.38,46-16.24,69.52-34.17,20.48-12.16,32.32-29.61,34.31-50.5,2.37-24.94-9.63-52.37-31.31-71.57-24.14-18.58-85.83-15.17-130.88-12.68-18.24,1-34,1.89-44,1.16C529.88,241.29,502.57,230,476.15,219c-22.11-9.18-43-17.85-55.91-19.4a5.93,5.93,0,0,0-.84-.06Z"/><path class="cls-2" d="M604,418.85c-2.15,0-4.29,0-6.44-.11-35-1.22-62.21-7.32-80.93-18.14-14.7-8.49-23.95-19.66-27.48-33.18-5.79-22.14-39.45-80.84-56.28-98.14C426.6,262.84,421.19,252.17,418,240c-2.87-11-3.24-21-.94-25.4,1-2,2.56-2.85,4.45-2.55,13.25,2.1,42,16,69.73,29.42,21.53,10.42,41.86,20.26,52.06,23.08,11.56,3.19,35.7-.49,61.25-4.39,26.32-4,53.54-8.17,69.88-5.26,17.1,3,36.6,13.2,50.87,26.52C742,297,749.84,315,747.43,332c-2.83,20-20.33,42-46.83,59.06C672.56,409.08,638.48,418.84,604,418.85Zm-183.2-206a3.35,3.35,0,0,0-3,2.16c-4.44,8.58,1.87,39.54,15.67,53.71C450.36,286.08,484.14,345,490,367.23c3.48,13.3,12.59,24.29,27.1,32.67,18.6,10.75,45.7,16.82,80.54,18,36.5,1.28,72.94-8.5,102.58-27.52,25.9-16.62,43.71-39,46.46-58.47,2.37-16.79-5.4-34.51-21.88-49.88-14.17-13.22-33.5-23.3-50.45-26.32-16.21-2.88-43.36,1.26-69.62,5.27-25.64,3.91-49.85,7.61-61.59,4.37-10.27-2.84-30.64-12.7-52.21-23.13-27.71-13.41-56.36-27.27-69.49-29.35a3.13,3.13,0,0,0-.61,0Z"/></g></g></g></g></svg>