<svg width="191" height="156" viewBox="0 0 191 156" fill="none" xmlns="http://www.w3.org/2000/svg">
<path fill-rule="evenodd" clip-rule="evenodd" d="M14.133 37.2727C14.0431 37.0699 13.9552 36.7805 14.0256 36.4674C14.0791 36.2293 14.2365 36.0868 14.2748 36.0522L14.2748 36.0521L14.2768 36.0503C14.3408 35.9923 14.4093 35.9451 14.4646 35.9099C14.5783 35.8375 14.7207 35.7626 14.8726 35.6887C15.1813 35.5387 15.6033 35.3574 16.0902 35.1597C17.0679 34.7626 18.3554 34.2794 19.6326 33.8133C20.543 33.481 21.4517 33.1561 22.2447 32.8753C22.278 32.844 22.3116 32.8131 22.3455 32.7826C22.7447 32.4235 23.25 32.0591 23.8151 31.7003C24.9469 30.9817 26.3807 30.2465 27.8386 29.5819C29.2994 28.916 30.8016 28.3131 32.0781 27.8615C33.3287 27.4191 34.4323 27.0962 35.0623 27.031C35.3105 27.0053 35.5315 26.9934 35.7143 27.0037C35.805 27.0088 35.9103 27.0205 36.0152 27.0492C36.107 27.0743 36.2812 27.134 36.4269 27.2906C36.6106 27.4883 36.6662 27.7492 36.6133 27.984C36.5711 28.1713 36.4702 28.3026 36.4129 28.369C36.2928 28.5083 36.1305 28.6245 35.9928 28.7138C35.4252 29.0816 34.3025 29.5948 33.0282 30.1374C31.7318 30.6893 30.2115 31.299 28.805 31.8611L28.5051 31.9809C27.2109 32.498 26.0407 32.9656 25.2465 33.3061C25.2334 33.3115 25.2163 33.3182 25.2123 33.3196L25.206 33.3219L25.2007 33.3238L25.1928 33.3266L25.1694 33.3347L25.083 33.3646L24.7591 33.477C24.4806 33.5737 24.0835 33.7121 23.607 33.8794C23.4358 33.9395 23.2545 34.0034 23.0647 34.0704C23.1686 34.0888 23.2765 34.1048 23.38 34.1199C24.4866 34.2817 27.4355 34.5728 30.1781 34.8335C31.0666 34.9179 31.9292 34.9988 32.6955 35.0706L32.7098 35.072C33.1164 35.1101 33.4958 35.1457 33.8373 35.1779C34.3307 35.2244 34.7454 35.2639 35.048 35.2938C35.3265 35.3213 35.5572 35.3448 35.6372 35.3594C66.2785 40.9493 90.4267 58.3215 114.94 75.9564C116.243 76.8935 117.546 77.8312 118.852 78.768C119.166 78.9934 119.238 79.4307 119.013 79.7448C118.787 80.059 118.35 80.1309 118.036 79.9055C116.752 78.9844 115.471 78.063 114.192 77.1429C89.6164 59.4659 65.7073 42.2682 35.386 36.7367C35.3899 36.7374 35.3876 36.7371 35.3767 36.7358C35.3608 36.7339 35.3268 36.7298 35.2669 36.7234C35.1799 36.714 35.0601 36.7018 34.9103 36.687C34.6112 36.6574 34.1992 36.6182 33.7059 36.5717C33.3643 36.5395 32.9839 36.5038 32.5757 36.4656L32.5672 36.4648L32.5611 36.4642C31.7955 36.3924 30.9328 36.3115 30.0456 36.2272C27.3226 35.9684 24.3283 35.6734 23.1775 35.5052L23.1435 35.5002L23.1434 35.5002L23.1434 35.5002C22.9347 35.4699 22.5533 35.4146 22.2353 35.3034C22.0758 35.2477 21.8391 35.1478 21.6548 34.9587C21.5778 34.8798 21.5008 34.7758 21.448 34.6454C21.0124 34.8017 20.5626 34.9642 20.1126 35.1284C18.8393 35.5931 17.5708 36.0694 16.617 36.4567C16.1705 36.6381 15.8033 36.7958 15.5402 36.9211C15.5674 36.9606 15.599 37.0038 15.6353 37.051C15.8784 37.3664 16.2652 37.7667 16.7763 38.235C17.7931 39.1668 19.2146 40.2895 20.7239 41.4229C22.2297 42.5537 23.8058 43.6825 25.1263 44.6265L25.3157 44.7619C26.5369 45.6347 27.5404 46.3521 28.0025 46.7285C28.3023 46.9727 28.3473 47.4137 28.1031 47.7134C27.8589 48.0131 27.418 48.0581 27.1182 47.8139C26.6917 47.4664 25.7144 46.7678 24.4453 45.8606L24.3121 45.7654C22.9926 44.8221 21.4038 43.6843 19.8832 42.5424C18.3662 41.4032 16.8997 40.247 15.8304 39.2672C15.2984 38.7796 14.8426 38.3158 14.5265 37.9056C14.369 37.7014 14.2283 37.4876 14.133 37.2727ZM15.3961 36.6602C15.3962 36.6602 15.3967 36.6618 15.3973 36.6649C15.3963 36.6617 15.396 36.6602 15.3961 36.6602ZM76.875 117.92H78.235V112.8C78.235 111.818 77.9683 111.05 77.435 110.496C76.9016 109.93 76.1496 109.648 75.179 109.648C74.6456 109.648 74.1656 109.749 73.739 109.952C73.323 110.144 73.003 110.4 72.779 110.72H72.427V106.288H71.067V117.92H72.427V113.552C72.427 112.816 72.651 112.186 73.099 111.664C73.547 111.13 74.123 110.864 74.827 110.864C76.1923 110.864 76.875 111.605 76.875 113.088V117.92ZM69.4561 107.776V106.496H60.4961V107.776H64.2721V117.92H65.7121V107.776H69.4561ZM87.7152 113.408V113.872H81.5712C81.5925 114.842 81.8219 115.6 82.2592 116.144C82.6965 116.677 83.3259 116.944 84.1472 116.944C85.2565 116.944 85.9392 116.528 86.1952 115.696H87.5712C87.4325 116.421 87.0645 117.008 86.4672 117.456C85.8805 117.904 85.1072 118.128 84.1472 118.128C82.9205 118.128 81.9605 117.728 81.2672 116.928C80.5739 116.128 80.2272 115.088 80.2272 113.808C80.2272 112.549 80.5739 111.541 81.2672 110.784C81.9605 110.026 82.9099 109.648 84.1152 109.648C85.2565 109.648 86.1365 110.01 86.7552 110.736C87.3739 111.45 87.6939 112.341 87.7152 113.408ZM84.0832 110.832C83.3899 110.832 82.8352 111.013 82.4192 111.376C82.0032 111.728 81.7472 112.181 81.6512 112.736H86.3072C86.2645 112.192 86.0459 111.738 85.6512 111.376C85.2565 111.013 84.7339 110.832 84.0832 110.832ZM104.75 110.464C104.312 109.92 103.646 109.648 102.75 109.648C101.726 109.648 100.968 110.005 100.478 110.72H100.126C99.699 110.005 98.9897 109.648 97.9977 109.648C97.059 109.648 96.3764 109.978 95.9497 110.64H95.5977V109.856H94.2857V117.92H95.6457V113.456C95.6457 112.688 95.811 112.064 96.1417 111.584C96.483 111.104 96.979 110.864 97.6297 110.864C98.6537 110.864 99.1657 111.536 99.1657 112.88V117.92H100.526V113.2C100.526 112.506 100.696 111.946 101.038 111.52C101.39 111.082 101.875 110.864 102.494 110.864C103.528 110.864 104.046 111.525 104.046 112.848V117.92H105.406V112.704C105.406 111.744 105.187 110.997 104.75 110.464ZM114.887 113.408V113.872H108.743C108.764 114.842 108.994 115.6 109.431 116.144C109.868 116.677 110.498 116.944 111.319 116.944C112.428 116.944 113.111 116.528 113.367 115.696H114.743C114.604 116.421 114.236 117.008 113.639 117.456C113.052 117.904 112.279 118.128 111.319 118.128C110.092 118.128 109.132 117.728 108.439 116.928C107.746 116.128 107.399 115.088 107.399 113.808C107.399 112.549 107.746 111.541 108.439 110.784C109.132 110.026 110.082 109.648 111.287 109.648C112.428 109.648 113.308 110.01 113.927 110.736C114.546 111.45 114.866 112.341 114.887 113.408ZM111.255 110.832C110.562 110.832 110.007 111.013 109.591 111.376C109.175 111.728 108.919 112.181 108.823 112.736H113.479C113.436 112.192 113.218 111.738 112.823 111.376C112.428 111.013 111.906 110.832 111.255 110.832ZM124.93 109.648C123.703 109.648 122.732 110.048 122.018 110.848C121.314 111.648 120.962 112.661 120.962 113.888C120.962 115.114 121.314 116.128 122.018 116.928C122.732 117.728 123.703 118.128 124.93 118.128C126.156 118.128 127.122 117.728 127.826 116.928C128.54 116.128 128.898 115.114 128.898 113.888C128.898 112.661 128.54 111.648 127.826 110.848C127.122 110.048 126.156 109.648 124.93 109.648ZM124.93 116.944C124.087 116.944 123.442 116.65 122.994 116.064C122.546 115.466 122.322 114.741 122.322 113.888C122.322 113.034 122.546 112.314 122.994 111.728C123.442 111.13 124.087 110.832 124.93 110.832C125.772 110.832 126.418 111.13 126.866 111.728C127.314 112.314 127.538 113.034 127.538 113.888C127.538 114.741 127.314 115.466 126.866 116.064C126.418 116.65 125.772 116.944 124.93 116.944ZM135.084 111.04H132.892V117.92H131.532V111.04H130.14V109.856H131.532V108.928C131.532 107.168 132.455 106.288 134.3 106.288H135.084V107.472H134.316C133.367 107.472 132.892 107.973 132.892 108.976V109.856H135.084V111.04ZM146.484 112.496H144.756L143.38 116.48H143.028L142.068 109.856H140.756L141.908 117.92H144.02L145.428 113.84H145.764L147.172 117.92H149.252L150.42 109.856H149.108L148.18 116.48H147.828L146.484 112.496ZM152.986 110.848C153.701 110.048 154.672 109.648 155.898 109.648C157.125 109.648 158.09 110.048 158.794 110.848C159.509 111.648 159.866 112.661 159.866 113.888C159.866 115.114 159.509 116.128 158.794 116.928C158.09 117.728 157.125 118.128 155.898 118.128C154.672 118.128 153.701 117.728 152.986 116.928C152.282 116.128 151.93 115.114 151.93 113.888C151.93 112.661 152.282 111.648 152.986 110.848ZM153.962 116.064C154.41 116.65 155.056 116.944 155.898 116.944C156.741 116.944 157.386 116.65 157.834 116.064C158.282 115.466 158.506 114.741 158.506 113.888C158.506 113.034 158.282 112.314 157.834 111.728C157.386 111.13 156.741 110.832 155.898 110.832C155.056 110.832 154.41 111.13 153.962 111.728C153.514 112.314 153.29 113.034 153.29 113.888C153.29 114.741 153.514 115.466 153.962 116.064ZM165.925 111.136H166.597V109.856H165.989C164.943 109.856 164.165 110.176 163.653 110.816H163.301V109.856H161.989V117.92H163.349V113.888C163.349 113.013 163.573 112.336 164.021 111.856C164.479 111.376 165.114 111.136 165.925 111.136ZM175.707 117.92H174.251L171.947 113.536H171.595L169.739 115.584V117.92H168.379V106.288H169.739V113.904L173.547 109.856H175.163L172.843 112.336L175.707 117.92ZM99.9654 126.731C100.386 126.673 100.807 126.614 101.227 126.556C109.075 125.465 116.785 124.392 124.368 126.583C125.318 126.858 126.315 126.885 127.244 126.856C127.623 126.845 127.978 126.826 128.32 126.807L128.32 126.807C128.86 126.778 129.365 126.75 129.874 126.759C134.127 126.83 138.376 127.001 142.634 127.173L142.637 127.173C143.934 127.225 145.232 127.277 146.531 127.326C148.788 127.412 151.045 127.468 153.299 127.523L153.3 127.523C160.177 127.692 167.031 127.86 173.807 128.891C174.35 128.973 174.771 128.923 175.133 128.864C175.194 128.854 175.253 128.844 175.308 128.835C175.582 128.788 175.795 128.752 176.066 128.756C176.453 128.761 176.77 128.452 176.776 128.065C176.781 127.679 176.472 127.361 176.085 127.356C175.675 127.35 175.324 127.411 175.047 127.459C175.023 127.463 175 127.467 174.977 127.471C174.953 127.475 174.93 127.479 174.907 127.483C174.609 127.531 174.353 127.558 174.017 127.507C167.146 126.462 160.167 126.291 153.268 126.121H153.268L153.267 126.121C151.029 126.066 148.799 126.012 146.584 125.927C145.293 125.878 144 125.826 142.707 125.774L142.702 125.774C138.44 125.603 134.169 125.431 129.898 125.359C129.35 125.35 128.745 125.382 128.161 125.413C127.83 125.431 127.505 125.448 127.202 125.457C126.313 125.484 125.492 125.451 124.756 125.238C116.878 122.962 108.889 124.075 101.113 125.158L101.1 125.16C100.658 125.222 100.216 125.283 99.7742 125.344C95.4297 125.943 91.0727 126.213 86.7208 126.154C82.8303 126.102 78.951 126.313 75.0925 126.564C74.3649 126.612 73.6383 126.66 72.9125 126.709C69.7819 126.919 66.6662 127.128 63.5459 127.22C63.1594 127.231 62.8554 127.553 62.8667 127.94C62.8781 128.326 63.2006 128.63 63.587 128.619C66.7363 128.526 69.8843 128.315 73.0166 128.105C73.7398 128.057 74.4621 128.008 75.1834 127.961C79.0368 127.711 82.8699 127.503 86.702 127.554C91.1245 127.614 95.5517 127.339 99.9654 126.731Z" fill="#050038"/>
</svg>
