<?xml version="1.0" encoding="UTF-8"?> <svg xmlns="http://www.w3.org/2000/svg" width="90" height="120" viewBox="0 0 90 120" fill="none"> <path fill-rule="evenodd" clip-rule="evenodd" d="M12.9537 114.164H40.9964C34.8043 113.025 29.5374 111.032 28.1851 108.612C10.1779 104.911 15.7295 80.0712 0 63.6299C11.3879 59.7865 17.9359 74.5196 19.2171 69.8932C20.8541 63.9858 18.6477 53.9502 11.9573 46.9039C25.4804 47.1886 23.0605 52.1708 27.4021 52.4555C26.9751 44.6263 29.1103 35.8007 22.1352 24.911C28.6833 26.7616 36.5125 32.242 39.6441 32.4555C40.1424 21.4235 38.79 8.25623 44.8399 0C48.3986 13.6655 59.9288 25.1957 58.6477 37.0818C61.7794 30.8185 62.7758 29.3238 61.4947 24.8399C70.0356 32.1708 75.0178 44.6263 71.7438 57.6512C74.5196 59.5018 78.4342 49.0391 77.5089 41.7794C89.6085 49.2527 81.4235 62.847 83.7722 72.8114C88.0427 71.8149 86.2633 63.4164 89.1815 63.3452C90.6762 72.5267 92.669 89.0391 65.4093 112.028C64.7687 112.954 63.6299 113.665 61.9929 114.164H84.9822V120H12.9537V114.164ZM47.5445 112.598C52.9537 112.598 69.1103 94.9466 65.1957 86.548C62.3488 90.2491 60.0712 91.3167 57.8648 92.0996C59.8576 86.1922 60.8541 85.4804 59.573 76.9395C56.6548 79.0036 56.2989 82.2064 52.3132 86.3345C51.5302 85.0534 55.8719 67.4733 48.8968 64.3416C49.4662 69.3238 48.0427 75.4448 45.8363 84.2705C44.7687 86.3345 40.0712 80.7117 39.0036 76.0142C36.0854 80.4982 41.5658 93.452 42.0641 95.3025C37.8648 93.452 35.1601 88.8256 31.4591 83.2028C31.3167 106.05 42.0641 107.9 47.5445 112.598ZM46.6904 27.4021C47.0463 28.968 43.8434 45.3381 48.1851 43.7722C52.8826 45.6228 46.6904 30.0356 46.6904 27.4021Z" fill="#FF2B00"></path> </svg> 