<svg width="58" height="58" viewBox="0 0 58 58" fill="#ffffff" xmlns="http://www.w3.org/2000/svg">
<path d="M13.499 27.063C13.0511 24.1515 9.69255 24.1824 7.38161 24.4787C4.18297 24.8887 2.60547 29.4692 2.60547 32.1826C2.60547 37.6529 12.2538 36.709 15.3146 35.225C17.6608 34.0874 20.8166 32.0315 20.1725 29.0258C19.8552 27.5449 19.102 25.3625 17.7844 24.4459C16.4944 23.5485 15.2789 24.5852 14.0878 25.0021" stroke="#ffffff" stroke-width="2" stroke-linecap="round"/>
<path d="M46.8077 4.3637C46.4377 1.77129 43.6632 1.79881 41.7542 2.06261C39.1118 2.42775 37.8086 6.50614 37.8086 8.9222C37.8086 13.7929 45.7791 12.9524 48.3076 11.6311C50.2458 10.6182 52.8528 8.78764 52.3207 6.11137C52.0586 4.79276 51.4364 2.84962 50.348 2.03348C49.2823 1.23444 48.2781 2.15748 47.2942 2.52865" stroke="#ffffff" stroke-width="2" stroke-linecap="round"/>
<path d="M46.8077 48.1108C46.4377 45.5184 43.6632 45.5459 41.7542 45.8097C39.1118 46.1748 37.8086 50.2532 37.8086 52.6693C37.8086 57.54 45.7791 56.6995 48.3076 55.3782C50.2458 54.3653 52.8528 52.5347 52.3207 49.8584C52.0586 48.5398 51.4364 46.5967 50.348 45.7806C49.2823 44.9815 48.2781 45.9045 47.2942 46.2757" stroke="#ffffff" stroke-width="2" stroke-linecap="round"/>
<path d="M14.6836 36.4858C21.3198 38.0173 28.3241 40.8087 34.2134 44.3697C35.1784 44.9532 36.566 45.8036 37.0595 46.7905" stroke="#ffffff" stroke-width="2" stroke-linecap="round"/>
<path d="M18.4962 23.6194C22.6351 21.3653 26.7652 19.1044 30.828 16.7151C32.4534 15.7592 34.1395 14.5028 35.8878 13.7288C36.4251 13.4909 36.6953 13.1475 36.9133 12.6544" stroke="#ffffff" stroke-width="2" stroke-linecap="round"/>
</svg>
