<?xml version="1.0" encoding="UTF-8"?> <svg xmlns="http://www.w3.org/2000/svg" width="68" height="111" viewBox="0 0 68 111" fill="none"> <path d="M62.8644 105.169C51.3833 82.2065 43.0942 59.7178 35.5141 35.2932C33.764 29.6538 31.5088 24.0924 29.5147 18.5302C28.6962 16.2468 27.5169 14.2819 26.3386 12.1779C25.2651 10.2609 24.4693 4.52686 23.2506 6.3549C21.3465 9.21119 22.7408 19.255 22.2802 22.6768C20.7202 34.2654 18.3635 45.7053 17.163 57.3499C16.4537 64.2302 15.1709 70.8582 13.7222 77.3773C12.7679 81.6716 11.7252 85.165 9.66375 89.2879C8.69967 91.2161 2.19955 104.754 6.39936 102.875C19.5252 97.0027 32.1749 90.5428 43.8074 82.1416C49.8479 77.779 56.1073 77.6981 62.8644 74.9952" stroke="#FF2B00" stroke-width="10" stroke-linecap="round"></path> </svg> 