<svg xmlns="http://www.w3.org/2000/svg" version="1.1" xmlns:xlink="http://www.w3.org/1999/xlink" xmlns:svgjs="http://svgjs.dev/svgjs" viewBox="0 0 800 800"><defs><linearGradient x1="50%" y1="0%" x2="50%" y2="100%" id="ccchaos-grad"><stop stop-color="hsl(105, 69%, 40%)" stop-opacity="1" offset="0%"></stop><stop stop-color="hsl(105, 69%, 60%)" stop-opacity="1" offset="100%"></stop></linearGradient></defs><g stroke-width="2" stroke="url(#ccchaos-grad)" fill="none" stroke-linecap="round"><path d="M369.44 108.55C372 96.51 390.5 100.88 401.1 116.13Q408.36 125.74 416.03 135.45 424.02 145.23 432.23 155.09 440.54 165 448.82 174.97 456.98 184.96 464.87 194.97 472.41 204.99 479.46 215 485.96 224.98 491.81 234.93 496.97 244.81 501.38 254.63 505.04 264.35 507.94 273.98 510.1 283.49 511.58 292.87 512.44 302.1 512.76 311.19 512.15 328.76 510.99 345.79 510.28 361.88 510.66 377.37 514 391.92 519.66 405.92 529.59 419.11 542.09 431.88 549.72 438.07 558.01 444.16 566.87 450.18 576.15 456.16 585.72 462.1 595.43 468.04 605.12 473.99 614.62 479.98 623.79 486.02 632.48 492.15 640.54 498.38 647.86 504.74 659.42 518.01 668.08 531.83 671.87 546.75 673 562.41 672.24 570.7 670.91 579.26 669.17 588.1 667.18 597.22 665.13 606.62 663.18 616.3 661.52 626.25 660.31 636.46C659.7 651.59 646.06 660.72 633.17 655.44Q617.28 652.92 601.39 655.09 585.5 661.66 569.61 671.78 553.73 684.11 537.84 697.05 521.95 708.91 506.06 718.12 490.17 723.5 474.28 724.32 458.39 720.5 442.5 712.52 426.61 701.43 410.73 688.68 394.84 675.94 378.95 664.87 363.06 656.93 347.17 653.15 331.28 654.03 315.39 659.45 299.5 668.7 283.61 680.57 267.73 693.51 251.84 705.83 235.95 715.92 220.06 722.45 204.17 724.57 188.28 722 172.39 715.09 156.51 704.72 140.62 692.27 124.73 679.36C111.84 669.71 104.39 650.36 111.37 642.04Q121.78 630.9 132.61 619.96 143.82 609.09 155 598.12 165.67 586.73 175.79 574.95 184.63 562.33 192.57 549.13 198.98 534.83 204.57 519.82 209.13 503.62 213.35 486.72 215.42 477.86 217.57 468.79 219.85 459.51 222.34 450.04 225.08 440.39 228.13 430.56 231.54 420.59 235.33 410.49 239.54 400.27 244.17 389.95 249.22 379.55 254.69 369.09 260.54 358.6 266.73 348.08 273.23 337.56 279.95 327.05 286.85 316.58 293.83 306.16 300.83 295.81 307.76 285.54 314.52 275.37 321.06 265.31 327.28 255.36 333.12 245.55 338.52 235.88 343.44 226.35 347.84 216.98 351.71 207.76 355.03 198.69 357.82 189.79 361.75 172.52 364.5 155.71 366.07 139.59 367.47 123.83 368.89 112.35 369.44 108.55" stroke-dasharray="10 8" transform="rotate(0, 400, 400)"></path><path d="M373.86 119C375.52 107.47 393.46 111.81 404.6 126.5Q412.01 135.77 419.7 145.12 427.56 154.55 435.5 164.05 443.41 173.61 451.2 183.21 458.74 192.84 465.95 202.5 472.74 212.17 479.01 221.84 484.71 231.49 489.78 241.11 494.18 250.68 497.88 260.19 500.89 269.63 503.23 278.98 504.91 288.23 506.01 297.37 506.58 306.38 506.71 315.26 506 332.48 504.94 349.22 504.5 365.08 505.15 380.39 508.6 394.8 514.19 408.67 523.71 421.71 535.57 434.32 542.78 440.4 550.61 446.37 558.98 452.24 567.76 458.04 576.85 463.77 586.11 469.47 595.4 475.14 604.58 480.81 613.51 486.5 622.06 492.23 630.11 498.01 637.53 503.87 649.7 515.98 659.31 528.5 664.41 541.87 666.94 555.86 665.86 570.98 663.26 586.85 661.42 595.23 659.49 603.87 657.64 612.77 656.03 621.94C654.42 635.57 639.54 645.56 627.07 642.64Q611.7 642.9 596.34 647.37 580.97 655.5 565.61 666.3 550.24 678.49 534.88 690.56 519.51 701.08 504.15 708.75 488.78 712.66 473.42 712.33 458.05 707.8 442.69 699.62 427.32 688.77 411.96 676.58 396.59 664.52 381.23 654.04 365.86 646.42 350.5 642.58 335.13 642.98 319.76 647.58 304.4 655.82 289.03 666.69 273.67 678.89 258.3 690.94 242.94 701.38 227.57 708.94 212.21 712.72 196.84 712.24 181.47 707.58 166.11 699.29 150.74 688.38 135.38 676.17C122.91 666.33 116.15 646.89 123.24 639.32Q133.67 628.95 144.4 618.58 155.28 608 166 597.15 176.04 585.67 185.45 573.72 193.56 560.84 200.79 547.33 206.59 532.74 211.65 517.47 215.82 501.08 219.75 484.06 221.7 475.2 223.74 466.15 225.93 456.92 228.31 447.53 230.95 437.99 233.88 428.32 237.15 418.52 240.79 408.63 244.82 398.65 249.25 388.6 254.07 378.49 259.29 368.36 264.88 358.21 270.8 348.05 277.01 337.92 283.46 327.81 290.09 317.76 296.83 307.77 303.62 297.85 310.37 288.03 317.01 278.3 323.47 268.69 329.67 259.2 335.56 249.84 341.07 240.61 346.15 231.52 350.76 222.58 354.88 213.79 358.49 205.15 361.6 196.65 366.14 180.17 369.42 164.12 371.19 148.7 372.5 133.63 373.49 122.64 373.86 119" stroke-dasharray="5 2" transform="rotate(4.04, 400, 400)"></path><path d="M378.77 129.47C379.82 118.44 397.21 122.73 408.58 136.87Q423.5 154.79 438.61 173 453.19 191.43 466.52 210.01 478.03 228.64 487.26 247.23 493.99 265.68 498.24 283.89 500.28 301.76 500.6 319.19 499.88 336.11 498.92 352.44 498.58 368.14 499.66 383.17 502.87 397.51 508.72 411.17 517.46 424.17 529.06 436.57 543.24 448.44 559.42 459.87 576.82 470.97 594.52 481.86 611.54 492.68 626.95 503.57 639.96 514.66 649.98 526.12 656.71 538.08 660.18 550.65 660.71 563.97 658.95 578.13 655.78 593.19 652.22 609.2C650.05 621.33 634.38 632.24 622.32 631.62Q607.45 634.37 592.58 640.72 577.71 649.95 562.84 661.03 547.97 672.72 533.11 683.72 518.24 692.8 503.37 698.95 488.5 701.48 473.63 700.1 458.76 694.98 443.9 686.68 429.03 676.13 414.16 664.51 399.29 653.11 384.42 643.21 369.55 635.91 354.69 632.04 339.82 632.01 324.95 635.83 310.08 643.09 295.21 652.96 280.34 664.34 265.47 675.97 250.61 686.54 235.74 694.88 220.87 700.06 206 701.48 191.13 699.01 176.26 692.91 161.39 683.86 146.53 672.88C134.46 663.38 128.31 644.26 135.47 637.17Q145.8 627.25 156.35 617.13 166.84 606.63 176.96 595.64 186.42 584.03 194.98 571.7 202.49 558.6 208.88 544.68 214.21 529.92 218.66 514.32 222.51 497.93 226.13 480.78 229.92 462.97 234.3 444.58 239.64 425.72 246.26 406.51 254.33 387.06 263.9 367.5 274.87 347.96 286.96 328.54 299.8 309.37 312.91 290.53 325.75 272.11 337.8 254.16 348.57 236.74 357.72 219.86 365.01 203.55 370.42 187.79 374.09 172.55 376.36 157.79 378.25 136.46 378.77 129.47" stroke-dasharray="3 3" transform="rotate(8.08, 400, 400)"></path><path d="M383.96 139.94C384.69 129.42 401.54 133.64 412.86 147.23Q427.27 164.43 441.42 181.92 454.7 199.62 466.55 217.47 476.5 235.4 484.26 253.3 489.74 271.1 493.03 288.7 494.45 306.02 494.47 322.97 493.74 339.47 492.97 355.46 492.89 370.87 494.22 385.68 497.53 399.85 503.25 413.37 511.61 426.27 522.58 438.57 535.92 450.31 551.14 461.57 567.58 472.43 584.47 482.99 600.95 493.36 616.18 503.65 629.44 514 640.14 524.54 647.93 535.39 652.69 546.68 654.6 558.52 654.09 571.03 651.81 584.28 648.6 598.36C646.24 609.03 630.27 620.87 618.61 622.33Q604.22 627.19 589.83 634.96 575.44 644.82 561.05 655.77 546.66 666.69 532.27 676.45 517.88 684.05 503.49 688.71 489.11 689.96 474.72 687.67 460.33 682.06 445.94 673.73 431.55 663.51 417.16 652.46 402.77 641.72 388.38 632.39 373.99 625.42 359.6 621.52 345.21 621.11 330.82 624.22 316.44 630.53 302.05 639.4 287.66 649.91 273.27 660.98 258.88 671.49 244.49 680.35 230.1 686.65 215.71 689.74 201.32 689.32 186.93 685.41 172.54 678.43 158.15 669.09C146.49 660.43 140.88 641.97 148.01 635.11Q158.17 625.36 168.38 615.21 178.35 604.57 187.82 593.32 196.54 581.4 204.34 568.75 211.1 555.32 216.82 541.11 221.59 526.12 225.59 510.39 229.11 493.96 232.48 476.91 236.08 459.3 240.27 441.24 245.4 422.82 251.73 404.16 259.42 385.37 268.52 366.55 278.93 347.82 290.45 329.27 302.74 311 315.38 293.07 327.9 275.56 339.83 258.53 350.72 241.99 360.19 225.97 368.01 210.48 374.06 195.5 378.39 181 381.23 166.94 383.44 146.61 383.96 139.94" stroke-dasharray="5 3" transform="rotate(12.12, 400, 400)"></path><path d="M389.24 150.41C389.91 140.4 406.22 144.56 417.2 157.57Q430.79 174.06 443.78 190.82 455.65 207.79 465.96 224.91 474.4 242.11 480.8 259.31 485.15 276.44 487.61 293.42 488.52 310.16 488.34 326.6 487.65 342.65 487.08 358.25 487.27 373.35 488.81 387.9 492.19 401.87 497.78 415.25 505.76 428.04 516.11 440.24 528.62 451.89 542.9 463.03 558.4 473.73 574.44 484.05 590.29 494.1 605.24 503.96 618.6 513.74 629.81 523.56 638.49 533.52 644.44 543.75 647.7 554.35 648.51 565.43 647.35 577.09 644.85 589.42C642.64 598.73 626.86 611.37 615.58 614.63Q601.66 621.15 587.74 629.84 573.83 639.9 559.91 650.36 545.99 660.26 532.08 668.67 518.16 674.78 504.24 678.03 490.33 678.11 476.41 675.02 462.49 669.04 448.58 660.74 434.66 650.9 420.74 640.44 406.83 630.34 392.91 621.55 378.99 614.91 365.08 611.02 351.16 610.27 337.24 612.71 323.33 618.12 309.41 626 295.49 635.59 281.58 646.01 267.66 656.26 253.74 665.4 239.83 672.55 225.91 677.05 212 678.47 198.08 676.69 184.16 671.86 170.25 664.45C158.96 657 153.79 639.54 160.83 632.71Q170.69 622.87 180.43 612.52 189.78 601.59 198.53 590 206.49 577.73 213.51 564.74 219.54 551.01 224.62 536.58 228.86 521.45 232.45 505.68 235.66 489.33 238.81 472.46 242.23 455.17 246.25 437.53 251.16 419.66 257.2 401.64 264.51 383.57 273.13 365.55 283 347.67 293.93 330.01 305.65 312.65 317.78 295.65 329.94 279.07 341.67 262.94 352.58 247.29 362.31 232.12 370.58 217.44 377.23 203.23 382.25 189.47 385.74 176.11 388.59 156.76 389.24 150.41" stroke-dasharray="8 4" transform="rotate(16.16, 400, 400)"></path><path d="M394.39 160.91C395.22 151.38 410.99 155.46 421.38 167.92Q433.91 183.69 445.57 199.71 455.95 215.94 464.75 232.32 471.75 248.78 476.89 265.27 480.24 281.72 482.01 298.05 482.51 314.19 482.21 330.08 481.61 345.65 481.25 360.83 481.69 375.57 483.43 389.84 486.87 403.58 492.32 416.79 499.92 429.44 509.66 441.54 521.37 453.11 534.73 464.17 549.27 474.76 564.44 484.93 579.61 494.76 594.15 504.32 607.46 513.7 619.02 522.98 628.42 532.26 635.42 541.66 639.94 551.25 642.1 561.16 642.19 571.46 640.68 582.26C638.93 590.38 623.76 603.65 612.86 608.33Q599.41 615.99 585.97 625.14 572.53 634.97 559.09 644.65 545.65 653.36 532.2 660.33 518.76 664.99 505.32 666.92 491.88 665.96 478.44 662.2 464.99 655.96 451.55 647.76 438.11 638.32 424.67 628.45 411.23 618.98 397.79 610.73 384.34 604.41 370.9 600.55 357.46 599.5 344.02 601.33 330.58 605.89 317.14 612.8 303.69 621.45 290.25 631.12 276.81 640.96 263.37 650.14 249.93 657.86 236.49 663.48 223.04 666.51 209.6 666.68 196.16 663.98 182.72 658.65C171.82 652.7 166.99 636.5 173.83 629.54Q183.26 619.43 192.42 608.76 201.08 597.46 209.06 585.51 216.22 572.89 222.47 559.61 227.81 545.66 232.28 531.09 236.03 515.93 239.24 500.23 242.18 484.07 245.12 467.51 248.37 450.64 252.22 433.53 256.92 416.28 262.67 398.97 269.6 381.69 277.76 364.51 287.08 347.52 297.41 330.79 308.54 314.36 320.14 298.3 331.87 282.64 343.34 267.42 354.18 252.64 364.06 238.32 372.7 224.45 379.91 211.01 385.59 197.97 389.79 185.3 393.51 166.94 394.39 160.91" stroke-dasharray="11 6" transform="rotate(20.200000000000003, 400, 400)"></path><path d="M399.2 171.4C400.41 162.38 415.58 166.36 425.16 178.25Q436.44 193.3 446.67 208.58 455.55 224.06 462.88 239.69 468.56 255.41 472.58 271.18 475.07 286.92 476.26 302.58 476.47 318.1 476.11 333.42 475.63 348.46 475.5 363.19 476.18 377.54 478.09 391.48 481.56 404.96 486.85 417.95 494.08 430.45 503.22 442.44 514.16 453.92 526.62 464.9 540.21 475.42 554.49 485.5 568.92 495.2 582.97 504.56 596.09 513.66 607.82 522.57 617.76 531.37 625.64 540.14 631.3 548.97 634.76 557.94 636.18 567.16 635.84 576.69C634.76 583.8 620.56 597.46 610.05 603.14Q597.1 611.44 584.14 620.58 571.19 629.83 558.23 638.48 545.28 645.86 532.33 651.39 519.37 654.65 506.42 655.37 493.46 653.51 480.51 649.2 467.55 642.79 454.6 634.77 441.64 625.77 428.69 616.48 415.73 607.63 402.78 599.9 389.82 593.9 376.87 590.09 363.91 588.78 350.96 590.05 338.01 593.82 325.05 599.78 312.1 607.49 299.14 616.33 286.19 625.61 273.23 634.63 260.28 642.67 247.32 649.11 234.37 653.46 221.41 655.36 208.46 654.68 195.5 651.46C184.99 647.16 180.37 632.42 186.91 625.22Q195.79 614.75 204.27 603.69 212.17 592.02 219.34 579.73 225.7 566.83 231.21 553.33 235.87 539.27 239.79 524.68 243.09 509.6 245.96 494.11 248.65 478.26 251.41 462.12 254.51 445.78 258.19 429.29 262.67 412.75 268.14 396.22 274.7 379.77 282.38 363.49 291.16 347.41 300.9 331.62 311.42 316.14 322.45 301.01 333.7 286.28 344.84 271.96 355.54 258.05 365.48 244.56 374.39 231.48 382.06 218.8 388.36 206.49 393.27 194.51 398.01 177.11 399.2 171.4" stroke-dasharray="2 2" transform="rotate(24.24, 400, 400)"></path><path d="M403.48 181.91C405.19 173.36 419.76 177.25 428.37 188.58Q438.26 202.9 447.01 217.44 454.42 232.17 460.38 247.04 464.84 262.01 467.89 277.04 469.66 292.07 470.4 307.04 470.41 321.91 470.05 336.62 469.72 351.11 469.82 365.34 470.72 379.26 472.78 392.82 476.27 405.99 481.39 418.74 488.24 431.04 496.81 442.88 506.99 454.26 518.57 465.17 531.23 475.62 544.6 485.64 558.24 495.26 571.7 504.51 584.51 513.45 596.25 522.13 606.55 530.6 615.12 538.94 621.77 547.21 626.42 555.5 629.14 563.88 630.09 572.42C629.83 578.71 616.9 592.5 606.81 598.75Q594.36 607.2 581.91 615.92 569.46 624.29 557.01 631.74 544.56 637.72 532.11 641.83 519.67 643.78 507.22 643.42 494.77 640.79 482.32 636.07 469.87 629.58 457.42 621.79 444.97 613.25 432.52 604.54 420.08 596.29 407.63 589.08 395.18 583.4 382.73 579.66 370.28 578.12 357.83 578.9 345.38 581.92 332.93 586.99 320.48 593.75 308.03 601.72 295.59 610.33 283.14 619 270.69 627.11 258.24 634.08 245.79 639.44 233.34 642.79 220.89 643.92 208.44 642.73C198.35 640.13 193.84 626.95 199.98 619.47Q208.2 608.6 215.91 597.17 223 585.17 229.36 572.62 234.93 559.54 239.72 545.94 243.76 531.88 247.16 517.4 250.05 502.55 252.63 487.39 255.1 471.97 257.69 456.37 260.63 440.65 264.15 424.88 268.42 409.11 273.61 393.42 279.79 377.87 287.01 362.5 295.25 347.37 304.39 332.53 314.29 318 324.73 303.82 335.46 290 346.2 276.57 356.66 263.52 366.55 250.86 375.63 238.57 383.67 226.64 390.52 215.04 396.09 203.74 401.94 187.31 403.48 181.91" stroke-dasharray="11 11" transform="rotate(28.28, 400, 400)"></path><path d="M407.07 192.42C409.37 184.37 423.3 188.14 430.81 198.89Q439.25 212.48 446.54 226.28 452.55 240.25 457.25 254.36 460.65 268.57 462.86 282.85 464.05 297.15 464.45 311.42 464.35 325.61 464.04 339.69 463.89 353.59 464.21 367.29 465.32 380.73 467.51 393.88 470.99 406.69 475.93 419.14 482.4 431.21 490.41 442.86 499.86 454.1 510.58 464.91 522.32 475.3 534.78 485.27 547.59 494.84 560.39 504.03 572.77 512.88 584.36 521.42 594.84 529.7 603.9 537.77 611.35 545.68 617.06 553.5 621 561.28 623.25 569.09C623.9 574.76 612.45 588.38 602.78 594.79Q590.86 602.95 578.94 610.91 567.03 618.18 555.11 624.3 543.19 628.87 531.28 631.62 519.36 632.37 507.44 631.07 495.52 627.81 483.61 622.78 471.69 616.32 459.77 608.81 447.86 600.75 435.94 592.63 424.02 584.96 412.1 578.24 400.19 572.89 388.27 569.24 376.35 567.52 364.43 567.84 352.52 570.19 340.6 574.41 328.68 580.23 316.76 587.3 304.85 595.16 292.93 603.32 281.01 611.26 269.09 618.49 257.18 624.54 245.26 629.04 233.34 631.7 221.42 632.36C211.75 631.38 207.27 619.83 212.92 612.07Q220.38 600.84 227.28 589.11 233.53 576.88 239.08 564.18 243.89 551.04 248 537.5 251.46 523.59 254.39 509.36 256.93 494.87 259.24 480.16 261.51 465.3 263.96 450.34 266.76 435.34 270.12 420.35 274.18 405.44 279.08 390.64 284.89 376.01 291.66 361.59 299.35 347.42 307.89 333.54 317.17 319.96 326.99 306.71 337.16 293.81 347.44 281.26 357.58 269.06 367.33 257.21 376.45 245.7 384.74 234.5 392.03 223.61 398.21 212.98 405.14 197.51 407.07 192.42" stroke-dasharray="8 3" transform="rotate(32.32, 400, 400)"></path><path d="M409.82 202.95C412.74 195.38 426 199.03 432.35 209.21Q439.34 222.06 445.23 235.11 449.95 248.31 453.53 261.66 456.02 275.1 457.55 288.62 458.29 302.17 458.46 315.71 458.31 329.21 458.11 342.63 458.14 355.92 458.68 369.04 459.98 381.96 462.26 394.64 465.72 407.05 470.47 419.15 476.57 430.93 484.03 442.35 492.77 453.41 502.65 464.08 513.49 474.37 525.03 484.28 537 493.8 549.06 502.96 560.91 511.76 572.22 520.24 582.69 528.43 592.06 536.35 600.11 544.05 606.69 551.57 611.72 558.97 615.2 566.29C616.76 571.54 606.9 584.73 597.68 590.91Q586.33 598.39 574.97 605.33 563.61 611.34 552.26 616.08 540.9 619.28 529.54 620.77 518.19 620.46 506.83 618.36 495.47 614.6 484.12 609.39 472.76 603.02 461.4 595.84 450.05 588.27 438.69 580.73 427.34 573.65 415.98 567.41 404.62 562.38 393.27 558.83 381.91 556.97 370.55 556.9 359.2 558.62 347.84 562.04 336.49 566.97 325.13 573.13 313.77 580.16 302.42 587.68 291.06 595.26 279.7 602.48 268.35 608.93 256.99 614.24 245.64 618.13 234.28 620.36C225.06 620.86 220.51 610.88 225.6 602.9Q232.23 591.42 238.29 579.5 243.7 567.18 248.46 554.48 252.55 541.44 256.03 528.09 258.98 514.48 261.5 500.66 263.72 486.66 265.8 472.53 267.9 458.34 270.21 444.12 272.88 429.92 276.08 415.79 279.93 401.77 284.55 387.91 290 374.23 296.31 360.78 303.47 347.58 311.41 334.66 320.05 322.03 329.25 309.72 338.82 297.71 348.58 286.03 358.32 274.67 367.83 263.62 376.88 252.87 385.3 242.41 392.91 232.21 399.58 222.25 407.53 207.73 409.82 202.95" stroke-dasharray="6 4" transform="rotate(36.36, 400, 400)"></path><path d="M411.63 213.47C415.17 206.38 427.69 209.9 432.9 219.5Q438.5 231.62 443.09 243.91 446.67 256.35 449.28 268.92 451.02 281.59 452.02 294.34 452.43 307.13 452.46 319.94 452.33 332.72 452.26 345.44 452.49 358.08 453.23 370.59 454.69 382.95 457.06 395.12 460.46 407.07 465 418.77 470.74 430.2 477.66 441.34 485.71 452.16 494.79 462.65 504.74 472.8 515.38 482.61 526.46 492.07 537.75 501.18 548.98 509.96 559.87 518.42 570.17 526.56 579.64 534.42 588.08 542.03 595.33 549.4 601.27 556.59 605.84 563.61C608.29 568.6 600.04 581.11 591.31 586.73Q580.54 593.24 569.78 598.98 559.01 603.65 548.25 607.02 537.48 608.93 526.72 609.29 515.95 608.06 505.19 605.33 494.42 601.21 483.66 595.92 472.9 589.72 462.13 582.92 451.37 575.85 440.6 568.88 429.84 562.35 419.07 556.59 408.31 551.87 397.54 548.45 386.78 546.48 376.01 546.07 365.25 547.23 354.48 549.92 343.72 553.99 332.95 559.24 322.19 565.41 311.43 572.2 300.66 579.25 289.9 586.23 279.13 592.79 268.37 598.59 257.6 603.34 246.84 606.82C238.11 608.58 233.43 600.09 237.92 591.96Q243.7 580.36 248.9 568.43 253.5 556.17 257.5 543.64 260.93 530.86 263.85 517.87 266.33 504.71 268.49 491.42 270.43 478.05 272.32 464.62 274.28 451.19 276.46 437.79 279 424.47 282.04 411.25 285.69 398.18 290.02 385.28 295.11 372.58 300.97 360.11 307.6 347.88 314.96 335.92 322.96 324.23 331.51 312.83 340.46 301.72 349.65 290.89 358.92 280.35 368.09 270.09 376.96 260.09 385.37 250.35 393.16 240.83 400.2 231.53 409.01 217.95 411.63 213.47" stroke-dasharray="10 10" transform="rotate(40.400000000000006, 400, 400)"></path><path d="M412.46 224.01C416.53 217.4 428.3 220.78 432.4 229.79Q436.72 241.17 440.15 252.7 442.75 264.37 444.57 276.16 445.71 288.06 446.31 300.02 446.51 312.05 446.49 324.09 446.43 336.13 446.51 348.15 446.93 360.1 447.86 371.97 449.47 383.72 451.88 395.33 455.22 406.77 459.55 418.01 464.91 429.04 471.31 439.82 478.69 450.35 486.99 460.6 496.08 470.56 505.82 480.22 516.02 489.57 526.49 498.62 537.02 507.35 547.38 515.78 557.36 523.91 566.75 531.76 575.37 539.33 583.06 546.65 589.69 553.74 595.18 560.63C598.39 565.48 591.72 577.1 583.49 581.93Q573.35 587.26 563.21 591.69 553.07 595.01 542.93 597.08 532.79 597.82 522.65 597.19 512.51 595.21 502.36 591.98 492.22 587.63 482.08 582.36 471.94 576.4 461.8 570.01 451.66 563.46 441.52 557.06 431.38 551.07 421.23 545.76 411.09 541.36 400.95 538.07 390.81 536.03 380.67 535.33 370.53 536 360.39 538.01 350.24 541.27 340.1 545.65 329.96 550.94 319.82 556.92 309.68 563.32 299.54 569.86 289.4 576.26 279.25 582.24 269.11 587.53 258.97 591.9C250.74 594.63 245.93 587.47 249.78 579.34Q254.68 567.81 259.05 556.03 262.88 544.02 266.19 531.83 269.02 519.48 271.43 507 273.52 494.44 275.36 481.82 277.08 469.18 278.8 456.55 280.63 443.97 282.7 431.47 285.12 419.07 288.01 406.81 291.44 394.71 295.5 382.8 300.22 371.08 305.64 359.59 311.75 348.34 318.52 337.33 325.89 326.57 333.78 316.07 342.08 305.83 350.67 295.84 359.41 286.11 368.14 276.62 376.72 267.36 385 258.32 392.83 249.49 400.08 240.84 409.56 228.18 412.46 224.01" stroke-dasharray="9 6" transform="rotate(44.44, 400, 400)"></path><path d="M412.28 234.56C416.77 228.43 427.76 231.65 430.86 240.08Q434.03 250.71 436.48 261.48 438.27 272.38 439.46 283.39 440.16 294.5 440.49 305.68 440.57 316.92 440.57 328.19 440.62 339.48 440.87 350.75 441.48 362 442.58 373.19 444.3 384.29 446.74 395.3 449.98 406.17 454.09 416.9 459.08 427.46 464.97 437.83 471.71 447.99 479.26 457.93 487.51 467.63 496.37 477.08 505.68 486.27 515.31 495.19 525.07 503.84 534.8 512.22 544.32 520.32 553.46 528.15 562.06 535.72 569.96 543.04 577.05 550.11 583.23 556.96C587.07 561.77 581.88 572.33 574.18 576.21Q564.69 580.25 555.2 583.35 545.71 585.38 536.22 586.27 526.73 585.98 517.24 584.52 507.75 581.96 498.26 578.38 488.77 573.93 479.28 568.77 469.79 563.1 460.3 557.14 450.81 551.12 441.32 545.26 431.83 539.8 422.34 534.93 412.85 530.85 403.36 527.71 393.87 525.63 384.38 524.7 374.89 524.94 365.4 526.34 355.92 528.86 346.43 532.4 336.94 536.82 327.45 541.95 317.96 547.6 308.47 553.56 298.98 559.58 289.49 565.45 280 570.93 270.51 575.83C262.81 579.24 257.88 573.22 261.1 565.22Q265.16 553.94 268.74 542.5 271.85 530.93 274.53 519.25 276.84 507.48 278.82 495.67 280.56 483.83 282.15 471.99 283.68 460.19 285.26 448.45 286.98 436.79 288.94 425.24 291.24 413.81 293.97 402.54 297.19 391.43 300.97 380.51 305.34 369.79 310.33 359.28 315.93 348.98 322.12 338.91 328.86 329.06 336.09 319.45 343.72 310.06 351.67 300.9 359.81 291.95 368.04 283.22 376.22 274.69 384.24 266.35 391.96 258.18 399.27 250.17 409.18 238.43 412.28 234.56" stroke-dasharray="3 1" transform="rotate(48.48, 400, 400)"></path><path d="M411.12 245.12C415.91 239.45 426.09 242.51 428.31 250.35Q430.52 260.24 432.17 270.25 433.32 280.37 434.05 290.6 434.45 300.91 434.62 311.3 434.67 321.75 434.74 332.24 434.92 342.75 435.35 353.27 436.14 363.78 437.38 374.25 439.19 384.68 441.62 395.03 444.76 405.3 448.63 415.45 453.26 425.49 458.65 435.38 464.77 445.11 471.59 454.66 479.04 464.03 487.03 473.19 495.47 482.15 504.23 490.88 513.18 499.38 522.2 507.65 531.15 515.68 539.88 523.46 548.26 531.01 556.16 538.33 563.47 545.41 570.09 552.26C574.38 557.06 570.5 566.47 563.34 569.3Q545.72 573.87 528.1 574.57 510.48 571.32 492.85 564.55 475.23 555.13 457.61 544.31 439.98 533.49 422.36 524.1 404.74 517.36 387.11 514.15 369.49 514.89 351.87 519.49 334.24 527.34 316.62 537.42 299 548.41 281.37 558.87C274.22 562.64 269.19 557.58 271.8 549.86Q275.07 539.04 277.93 528.13 280.41 517.15 282.55 506.14 284.4 495.1 286.02 484.07 287.48 473.07 288.86 462.12 290.24 451.24 291.7 440.44 293.32 429.76 295.18 419.19 297.37 408.77 299.94 398.5 302.95 388.4 306.45 378.47 310.47 368.73 315.03 359.18 320.12 349.82 325.75 340.67 331.86 331.72 338.43 322.97 345.39 314.41 352.67 306.05 360.18 297.88 367.83 289.89 375.52 282.07 383.16 274.41 390.63 266.89 397.85 259.52 407.91 248.69 411.12 245.12" stroke-dasharray="6 1" transform="rotate(52.52, 400, 400)"></path><path d="M409.09 255.7C414.01 250.49 423.34 253.37 424.83 260.62Q427.32 279 428.42 297.78 428.75 316.89 429.02 336.23 429.96 355.7 432.28 375.18 436.54 394.56 443.17 413.7 452.34 432.49 464 450.81 477.82 468.56 493.28 485.66 509.65 502.01 526.11 517.58 541.81 532.33 555.91 546.24C560.47 551.06 557.68 559.26 551.1 561.05Q534.87 563.21 518.64 562.04 502.42 557.64 486.19 550.53 469.96 541.49 453.73 531.52 437.5 521.75 421.28 513.27 405.05 507.02 388.82 503.69 372.59 503.67 356.36 506.95 340.13 513.17 323.9 521.63 307.68 531.39 291.45 541.35C284.87 545.2 279.8 540.91 281.85 533.59Q286.63 513.19 290.24 492.76 293.05 472.44 295.5 452.36 298.12 432.66 301.42 413.42 305.9 394.75 311.92 376.7 319.74 359.32 329.41 342.63 340.83 326.64 353.7 311.32 367.56 296.63 381.84 282.51 395.9 268.9 409.09 255.7 409.09 255.7 409.09 255.7" stroke-dasharray="10 10" transform="rotate(56.56, 400, 400)"></path><path d="M406.28 266.27C411.17 261.53 419.66 264.23 420.59 270.88Q422.07 287.74 422.69 304.95 422.97 322.46 423.46 340.19 424.72 358.06 427.26 375.99 431.49 393.89 437.71 411.66 446.05 429.2 456.46 446.42 468.73 463.23 482.47 479.55 497.18 495.32 512.25 510.46 527.02 524.94 540.84 538.72C545.48 543.51 543.57 550.53 537.57 551.35Q522.77 551.42 507.96 548.74 493.16 543.57 478.36 536.38 463.56 527.86 448.75 518.8 433.95 510.05 419.15 502.45 404.34 496.69 389.54 493.33 374.74 492.67 359.93 494.79 345.13 499.47 330.32 506.29 315.52 514.6 300.72 523.62C294.71 527.28 289.69 523.55 291.25 516.78Q294.88 498 297.67 479.36 299.95 460.95 302.1 442.87 304.54 425.2 307.68 408 311.87 391.33 317.4 375.23 324.46 359.71 333.12 344.79 343.3 330.46 354.79 316.68 367.29 303.43 380.36 290.66 393.52 278.29 406.28 266.27 406.28 266.27 406.28 266.27" stroke-dasharray="5 5" transform="rotate(60.599999999999994, 400, 400)"></path><path d="M402.85 276.86C407.55 272.57 415.2 275.07 415.74 281.13Q416.56 296.47 416.96 312.1 417.32 328 418.08 344.11 419.63 360.37 422.33 376.71 426.47 393.07 432.26 409.38 439.77 425.56 448.99 441.54 459.77 457.25 471.84 472.62 484.86 487.59 498.4 502.11 511.98 516.12 525.11 529.59C529.63 534.3 528.4 540.17 522.98 540.15Q509.62 538.52 496.25 534.76 482.89 529.15 469.53 522.13 456.16 514.25 442.8 506.12 429.44 498.37 416.07 491.61 402.71 486.36 389.35 483.03 375.98 481.88 362.62 483 349.25 486.29 335.89 491.51 322.53 498.25 309.16 505.99C303.74 509.28 298.88 505.95 300.02 499.82Q302.71 482.9 304.86 466.22 306.74 449.83 308.68 433.8 310.97 418.18 313.94 403 317.83 388.3 322.88 374.09 329.21 360.38 336.87 347.17 345.84 334.44 355.97 322.16 367.06 310.31 378.8 298.84 396.85 282.28 402.85 276.86" stroke-dasharray="3 9" transform="rotate(64.64, 400, 400)"></path><path d="M398.98 287.46C403.35 283.62 410.17 285.92 410.46 291.39Q410.94 305.19 411.31 319.25 411.86 333.54 412.89 348.01 414.69 362.63 417.48 377.36 421.48 392.13 426.8 406.91 433.51 421.63 441.59 436.25 450.94 450.7 461.4 464.95 472.74 478.93 484.66 492.59 496.83 505.91 508.92 518.83C513.17 523.37 512.41 528.21 507.57 527.53Q495.65 524.64 483.73 520.19 471.81 514.47 459.89 507.83 447.97 500.7 436.05 493.51 424.13 486.74 412.21 480.79 400.29 476.05 388.37 472.82 376.45 471.3 364.53 471.59 352.61 473.66 340.69 477.4 328.77 482.55 316.85 488.8C312.01 491.56 307.4 488.51 308.22 483.09Q310.19 468.19 311.87 453.56 313.48 439.25 315.25 425.28 317.42 411.69 320.21 398.49 323.81 385.7 328.36 373.32 333.97 361.35 340.68 349.78 348.47 338.59 357.27 327.77 366.93 317.28 377.26 307.09 393.51 292.31 398.98 287.46" stroke-dasharray="5 0" transform="rotate(68.68, 400, 400)"></path><path d="M394.89 298.07C398.83 294.67 404.8 296.76 404.98 301.62Q405.37 313.9 405.85 326.38 406.64 339.05 407.93 351.89 409.91 364.86 412.73 377.94 416.51 391.09 421.35 404.27 427.26 417.45 434.25 430.6 442.25 443.67 451.17 456.62 460.85 469.41 471.11 482.02 481.75 494.4 492.52 506.52C496.39 510.82 495.89 514.72 491.64 513.57Q481.15 509.88 470.67 505.15 460.18 499.6 449.7 493.52 439.21 487.2 428.72 480.96 418.24 475.12 407.75 469.96 397.26 465.74 386.78 462.67 376.29 460.91 365.8 460.54 355.32 461.59 344.83 463.99 334.34 467.63 323.86 472.33C319.61 474.48 315.35 471.65 315.94 466.97Q317.4 454.15 318.76 441.61 320.18 429.36 321.84 417.42 323.9 405.8 326.5 394.51 329.78 383.55 333.84 372.92 338.75 362.61 344.54 352.61 351.2 342.9 358.7 333.48 366.96 324.3 375.84 315.36 390.05 302.35 394.89 298.07" stroke-dasharray="4 4" transform="rotate(72.72, 400, 400)"></path><path d="M390.79 308.69C394.18 305.74 399.35 307.6 399.51 311.87Q399.98 322.6 400.67 333.51 401.7 344.57 403.21 355.76 405.3 367.08 408.06 378.49 411.58 389.98 415.89 401.53 421.03 413.11 426.97 424.69 433.7 436.25 441.16 447.76 449.24 459.2 457.86 470.55 466.88 481.77 476.15 492.84C479.52 496.78 479.16 499.89 475.47 498.47Q466.4 494.44 457.33 489.77 448.26 484.64 439.19 479.25 430.12 473.79 421.05 468.49 411.98 463.54 402.91 459.14 393.84 455.44 384.77 452.6 375.7 450.72 366.63 449.87 357.55 450.08 348.48 451.36 339.41 453.64 330.34 456.84C326.65 458.38 322.86 455.7 323.28 451.78Q324.41 441.04 325.58 430.55 326.89 420.3 328.47 410.31 330.41 400.58 332.81 391.1 335.76 381.88 339.32 372.9 343.54 364.17 348.45 355.67 354.04 347.39 360.3 339.31 367.18 331.42 374.62 323.7 386.65 312.41 390.79 308.69" stroke-dasharray="5 7" transform="rotate(76.76, 400, 400)"></path><path d="M386.89 319.32C389.7 316.81 394.08 318.43 394.29 322.09Q395.86 340.63 398.75 359.63 403.49 379.03 410.44 398.73 419.76 418.6 431.37 438.52 444.96 458.37 460.01 478.01C462.83 481.51 462.5 483.95 459.39 482.46Q444.02 474.17 428.66 465.04 413.29 456.08 397.92 448.3 382.55 442.57 367.19 439.52 351.82 439.5 336.45 442.51C333.34 443.47 330.07 440.96 330.4 437.77Q332.42 420.51 335.15 404.02 339.14 388.28 344.8 373.28 352.42 358.96 362.09 345.25 373.68 332.07 386.89 319.32 386.89 319.32 386.89 319.32" stroke-dasharray="3 6" transform="rotate(80.80000000000001, 400, 400)"></path><path d="M383.41 329.96C385.61 327.87 389.22 329.26 389.51 332.31Q391.48 347.74 394.55 363.51 398.99 379.59 404.99 395.91 412.61 412.41 421.83 429.04 432.49 445.7 444.35 462.34C446.57 465.32 446.22 467.21 443.65 465.81Q431 458.49 418.34 450.94 405.69 443.75 393.03 437.47 380.38 432.6 367.72 429.5 355.07 428.43 342.41 429.47C339.85 429.93 337.17 427.63 337.45 425.14Q339.33 411.59 341.92 398.57 345.49 386.07 350.29 374.05 356.46 362.48 364.08 351.31 378.26 335.22 383.41 329.96" stroke-dasharray="8 9" transform="rotate(84.84, 400, 400)"></path><path d="M380.52 340.61C382.15 338.96 385 340.08 385.37 342.53Q387.59 354.86 390.62 367.41 394.58 380.18 399.54 393.13 405.52 406.24 412.52 419.47 420.49 432.79 429.3 446.15C430.98 448.57 430.57 450.01 428.55 448.82Q418.53 442.88 408.52 437.01 398.51 431.51 388.49 426.65 378.48 422.68 368.47 419.79 358.45 418.13 348.44 417.79C346.42 417.88 344.34 415.86 344.61 413.99Q346.42 403.82 348.79 393.98 351.87 384.45 355.77 375.21 360.57 366.23 366.3 357.5 376.74 344.79 380.52 340.61" stroke-dasharray="10 6" transform="rotate(88.88, 400, 400)"></path><path d="M378.41 351.27C379.49 350.05 381.62 350.9 382.02 352.74Q386.98 371.33 394.08 390.44 403.46 409.97 415.03 429.82C416.18 431.63 415.77 432.68 414.26 431.79Q399.39 423.24 384.52 415.82 369.64 410.34 354.77 407.43C353.26 407.3 351.79 405.65 352.06 404.34Q355.79 390.22 361.26 376.74 373.59 357.53 378.41 351.27" stroke-dasharray="4 2" transform="rotate(92.92, 400, 400)"></path><path d="M377.18 361.95C377.81 361.13 379.23 361.71 379.58 362.95Q383.62 375.29 388.63 387.88 394.65 400.68 401.65 413.69C402.33 414.87 401.97 415.59 400.97 415.03Q391.14 409.7 381.3 404.99 371.46 401.15 361.62 398.35C360.63 398.13 359.72 396.93 359.95 396.12Q362.93 387.25 366.75 378.62 374.33 366.07 377.18 361.95" stroke-dasharray="1 9" transform="rotate(96.96, 400, 400)"></path></g></svg>