<svg xmlns="http://www.w3.org/2000/svg" version="1.1" xmlns:xlink="http://www.w3.org/1999/xlink" xmlns:svgjs="http://svgjs.dev/svgjs" viewBox="0 0 1422 800"><g fill="none" stroke-width="3" stroke="hsl(70, 69%, 50%)" stroke-linecap="round"><line x1="1156.5" y1="400" x2="265.5" y2="400" transform="rotate(0, 711, 400)" opacity="0.26"></line><line x1="1236" y1="400" x2="186" y2="400" transform="rotate(4, 711, 400)" opacity="0.42"></line><line x1="1015.5" y1="400" x2="406.5" y2="400" transform="rotate(8, 711, 400)" opacity="0.45"></line><line x1="718" y1="400" x2="704" y2="400" transform="rotate(12, 711, 400)" opacity="0.98"></line><line x1="658" y1="400" x2="764" y2="400" transform="rotate(16, 711, 400)" opacity="0.12"></line><line x1="1284" y1="400" x2="138" y2="400" transform="rotate(20, 711, 400)" opacity="0.57"></line><line x1="794" y1="400" x2="628" y2="400" transform="rotate(24, 711, 400)" opacity="0.90"></line><line x1="1237.5" y1="400" x2="184.5" y2="400" transform="rotate(28, 711, 400)" opacity="0.86"></line><line x1="1340" y1="400" x2="82" y2="400" transform="rotate(32, 711, 400)" opacity="0.57"></line><line x1="1309" y1="400" x2="113" y2="400" transform="rotate(36, 711, 400)" opacity="0.89"></line><line x1="837.5" y1="400" x2="584.5" y2="400" transform="rotate(40, 711, 400)" opacity="0.53"></line><line x1="884.5" y1="400" x2="537.5" y2="400" transform="rotate(44, 711, 400)" opacity="0.40"></line><line x1="859" y1="400" x2="563" y2="400" transform="rotate(48, 711, 400)" opacity="0.60"></line><line x1="716.5" y1="400" x2="705.5" y2="400" transform="rotate(52, 711, 400)" opacity="0.51"></line><line x1="1078" y1="400" x2="344" y2="400" transform="rotate(56, 711, 400)" opacity="0.71"></line><line x1="875.5" y1="400" x2="546.5" y2="400" transform="rotate(60, 711, 400)" opacity="0.56"></line><line x1="763" y1="400" x2="659" y2="400" transform="rotate(64, 711, 400)" opacity="0.60"></line><line x1="1126" y1="400" x2="296" y2="400" transform="rotate(68, 711, 400)" opacity="0.93"></line><line x1="671.5" y1="400" x2="750.5" y2="400" transform="rotate(72, 711, 400)" opacity="0.65"></line><line x1="747" y1="400" x2="675" y2="400" transform="rotate(76, 711, 400)" opacity="0.08"></line><line x1="653.5" y1="400" x2="768.5" y2="400" transform="rotate(80, 711, 400)" opacity="0.70"></line><line x1="898.5" y1="400" x2="523.5" y2="400" transform="rotate(84, 711, 400)" opacity="0.99"></line><line x1="1307.5" y1="400" x2="114.5" y2="400" transform="rotate(88, 711, 400)" opacity="0.84"></line><line x1="1282" y1="400" x2="140" y2="400" transform="rotate(92, 711, 400)" opacity="0.68"></line><line x1="675" y1="400" x2="747" y2="400" transform="rotate(96, 711, 400)" opacity="0.28"></line><line x1="1183.5" y1="400" x2="238.5" y2="400" transform="rotate(100, 711, 400)" opacity="0.14"></line><line x1="754.5" y1="400" x2="667.5" y2="400" transform="rotate(104, 711, 400)" opacity="0.44"></line><line x1="1139.5" y1="400" x2="282.5" y2="400" transform="rotate(108, 711, 400)" opacity="0.21"></line><line x1="1348.5" y1="400" x2="73.5" y2="400" transform="rotate(112, 711, 400)" opacity="0.55"></line><line x1="769" y1="400" x2="653" y2="400" transform="rotate(116, 711, 400)" opacity="0.84"></line><line x1="886" y1="400" x2="536" y2="400" transform="rotate(120, 711, 400)" opacity="0.30"></line><line x1="984.5" y1="400" x2="437.5" y2="400" transform="rotate(124, 711, 400)" opacity="0.52"></line><line x1="1011.5" y1="400" x2="410.5" y2="400" transform="rotate(128, 711, 400)" opacity="0.18"></line><line x1="1129.5" y1="400" x2="292.5" y2="400" transform="rotate(132, 711, 400)" opacity="0.46"></line><line x1="1356.5" y1="400" x2="65.5" y2="400" transform="rotate(136, 711, 400)" opacity="0.49"></line><line x1="820.5" y1="400" x2="601.5" y2="400" transform="rotate(140, 711, 400)" opacity="0.73"></line><line x1="714" y1="400" x2="708" y2="400" transform="rotate(144, 711, 400)" opacity="0.09"></line><line x1="834" y1="400" x2="588" y2="400" transform="rotate(148, 711, 400)" opacity="0.74"></line><line x1="727" y1="400" x2="695" y2="400" transform="rotate(152, 711, 400)" opacity="0.33"></line><line x1="647.5" y1="400" x2="774.5" y2="400" transform="rotate(156, 711, 400)" opacity="0.89"></line><line x1="890.5" y1="400" x2="531.5" y2="400" transform="rotate(160, 711, 400)" opacity="0.88"></line><line x1="899.5" y1="400" x2="522.5" y2="400" transform="rotate(164, 711, 400)" opacity="0.64"></line><line x1="1319" y1="400" x2="103" y2="400" transform="rotate(168, 711, 400)" opacity="0.47"></line><line x1="1327" y1="400" x2="95" y2="400" transform="rotate(172, 711, 400)" opacity="0.19"></line><line x1="1350.5" y1="400" x2="71.5" y2="400" transform="rotate(176, 711, 400)" opacity="0.11"></line><line x1="1337" y1="400" x2="85" y2="400" transform="rotate(180, 711, 400)" opacity="0.29"></line><line x1="746.5" y1="400" x2="675.5" y2="400" transform="rotate(184, 711, 400)" opacity="0.18"></line><line x1="1153" y1="400" x2="269" y2="400" transform="rotate(188, 711, 400)" opacity="0.83"></line><line x1="1155.5" y1="400" x2="266.5" y2="400" transform="rotate(192, 711, 400)" opacity="0.25"></line><line x1="1324" y1="400" x2="98" y2="400" transform="rotate(196, 711, 400)" opacity="0.80"></line><line x1="767" y1="400" x2="655" y2="400" transform="rotate(200, 711, 400)" opacity="0.65"></line><line x1="1032.5" y1="400" x2="389.5" y2="400" transform="rotate(204, 711, 400)" opacity="0.65"></line><line x1="664.5" y1="400" x2="757.5" y2="400" transform="rotate(208, 711, 400)" opacity="0.25"></line><line x1="1365.5" y1="400" x2="56.5" y2="400" transform="rotate(212, 711, 400)" opacity="0.12"></line><line x1="1255.5" y1="400" x2="166.5" y2="400" transform="rotate(216, 711, 400)" opacity="0.73"></line><line x1="897" y1="400" x2="525" y2="400" transform="rotate(220, 711, 400)" opacity="0.11"></line><line x1="704.5" y1="400" x2="717.5" y2="400" transform="rotate(224, 711, 400)" opacity="1.00"></line><line x1="657.5" y1="400" x2="764.5" y2="400" transform="rotate(228, 711, 400)" opacity="0.28"></line><line x1="729" y1="400" x2="693" y2="400" transform="rotate(232, 711, 400)" opacity="0.67"></line><line x1="1112" y1="400" x2="310" y2="400" transform="rotate(236, 711, 400)" opacity="0.58"></line><line x1="1013.5" y1="400" x2="408.5" y2="400" transform="rotate(240, 711, 400)" opacity="0.40"></line><line x1="1060.5" y1="400" x2="361.5" y2="400" transform="rotate(244, 711, 400)" opacity="0.68"></line><line x1="833" y1="400" x2="589" y2="400" transform="rotate(248, 711, 400)" opacity="0.99"></line><line x1="719" y1="400" x2="703" y2="400" transform="rotate(252, 711, 400)" opacity="0.16"></line><line x1="784" y1="400" x2="638" y2="400" transform="rotate(256, 711, 400)" opacity="0.60"></line><line x1="992.5" y1="400" x2="429.5" y2="400" transform="rotate(260, 711, 400)" opacity="0.38"></line><line x1="993" y1="400" x2="429" y2="400" transform="rotate(264, 711, 400)" opacity="0.10"></line><line x1="1231" y1="400" x2="191" y2="400" transform="rotate(268, 711, 400)" opacity="0.69"></line><line x1="918" y1="400" x2="504" y2="400" transform="rotate(272, 711, 400)" opacity="0.57"></line><line x1="1269" y1="400" x2="153" y2="400" transform="rotate(276, 711, 400)" opacity="0.86"></line><line x1="1151" y1="400" x2="271" y2="400" transform="rotate(280, 711, 400)" opacity="0.14"></line><line x1="720.5" y1="400" x2="701.5" y2="400" transform="rotate(284, 711, 400)" opacity="0.59"></line><line x1="712" y1="400" x2="710" y2="400" transform="rotate(288, 711, 400)" opacity="0.64"></line><line x1="758.5" y1="400" x2="663.5" y2="400" transform="rotate(292, 711, 400)" opacity="0.85"></line><line x1="1262.5" y1="400" x2="159.5" y2="400" transform="rotate(296, 711, 400)" opacity="0.54"></line><line x1="783.5" y1="400" x2="638.5" y2="400" transform="rotate(300, 711, 400)" opacity="0.23"></line><line x1="771" y1="400" x2="651" y2="400" transform="rotate(304, 711, 400)" opacity="0.52"></line><line x1="1317.5" y1="400" x2="104.5" y2="400" transform="rotate(308, 711, 400)" opacity="0.35"></line><line x1="1268" y1="400" x2="154" y2="400" transform="rotate(312, 711, 400)" opacity="0.91"></line><line x1="1159" y1="400" x2="263" y2="400" transform="rotate(316, 711, 400)" opacity="0.96"></line><line x1="799" y1="400" x2="623" y2="400" transform="rotate(320, 711, 400)" opacity="0.58"></line><line x1="1105" y1="400" x2="317" y2="400" transform="rotate(324, 711, 400)" opacity="0.55"></line><line x1="713" y1="400" x2="709" y2="400" transform="rotate(328, 711, 400)" opacity="0.47"></line><line x1="926.5" y1="400" x2="495.5" y2="400" transform="rotate(332, 711, 400)" opacity="0.22"></line><line x1="1194.5" y1="400" x2="227.5" y2="400" transform="rotate(336, 711, 400)" opacity="0.93"></line><line x1="923" y1="400" x2="499" y2="400" transform="rotate(340, 711, 400)" opacity="0.81"></line><line x1="672.5" y1="400" x2="749.5" y2="400" transform="rotate(344, 711, 400)" opacity="0.57"></line><line x1="1113" y1="400" x2="309" y2="400" transform="rotate(348, 711, 400)" opacity="0.45"></line></g></svg>