<?xml version="1.0" standalone="no"?>
<!DOCTYPE svg PUBLIC "-//W3C//DTD SVG 20010904//EN"
 "http://www.w3.org/TR/2001/REC-SVG-20010904/DTD/svg10.dtd">
<svg version="1.0" xmlns="http://www.w3.org/2000/svg"
 width="625.000000pt" height="625.000000pt" viewBox="0 0 625.000000 625.000000"
 preserveAspectRatio="xMidYMid meet">
<metadata>
Created by potrace 1.14, written by Peter Selinger 2001-2017
</metadata>
<g transform="translate(0.000000,625.000000) scale(0.100000,-0.100000)"
fill="#000000" stroke="none">
<path d="M3000 4458 c-235 -35 -253 -39 -365 -95 -159 -80 -212 -121 -329
-254 -120 -135 -205 -306 -251 -504 -16 -68 -21 -183 -10 -235 3 -14 8 -40 11
-58 9 -56 51 -187 73 -230 12 -23 20 -45 19 -49 -1 -5 2 -33 6 -63 5 -30 10
-72 12 -92 1 -20 8 -47 14 -58 9 -18 6 -31 -19 -80 -35 -68 -38 -94 -13 -132
61 -93 120 -168 139 -177 27 -13 107 0 154 25 38 19 131 11 175 -15 24 -15 32
-30 46 -87 9 -38 14 -81 11 -97 -3 -15 -1 -33 5 -40 5 -6 6 -21 2 -32 -14 -41
17 -114 42 -98 5 2 14 0 21 -5 7 -6 29 -13 50 -17 20 -4 49 -16 63 -27 13 -11
33 -18 43 -15 11 2 26 -4 35 -15 12 -14 25 -18 47 -14 16 2 42 -2 57 -10 35
-18 56 -18 72 1 8 10 17 12 24 6 22 -19 69 -21 88 -5 11 11 26 14 41 10 16 -4
33 1 49 14 15 11 33 17 45 14 14 -4 26 1 35 15 8 12 17 19 19 16 4 -4 22 0 89
20 36 11 60 28 64 47 9 43 16 103 16 135 0 17 4 34 9 37 5 4 7 21 4 39 -4 28
1 38 41 79 30 31 57 49 78 52 18 4 46 8 61 10 17 3 57 -6 99 -23 38 -16 79
-26 90 -23 11 3 39 31 62 62 23 32 54 69 69 84 40 40 44 70 17 130 -25 54 -27
79 -17 161 4 28 9 82 13 120 3 39 10 75 14 80 16 20 50 122 76 230 25 106 28
190 11 280 -3 11 -7 38 -11 60 -15 87 -34 134 -122 304 -47 89 -244 299 -335
356 -155 97 -216 124 -324 140 -199 29 -327 36 -415 23z m285 -27 c171 -24
231 -47 394 -149 227 -143 448 -453 486 -682 14 -80 13 -179 -1 -231 -8 -30
-25 -99 -38 -154 -13 -55 -38 -134 -56 -175 -17 -41 -32 -94 -33 -117 -1 -54
-12 -46 -26 18 -8 36 -20 58 -41 76 -34 28 -36 42 -14 85 9 16 11 27 5 23 -12
-7 5 41 21 60 4 5 8 14 8 20 0 5 -10 -1 -21 -15 l-20 -25 16 34 c18 35 30 135
14 110 -13 -21 -12 7 1 32 6 10 8 19 6 19 -6 0 -36 -55 -36 -65 0 -3 5 -3 10
0 6 3 10 4 10 2 0 -11 -40 -91 -40 -80 0 6 -3 20 -6 30 -4 14 -4 15 4 4 8 -11
11 -9 17 8 4 13 4 25 1 28 -3 4 -6 0 -6 -8 0 -11 -2 -11 -10 1 -5 8 -10 20
-10 25 0 6 5 3 10 -5 6 -10 8 0 6 32 -1 28 2 45 7 41 6 -4 8 4 4 18 -3 13 1
42 9 64 16 46 18 67 4 45 -15 -24 -12 -2 15 104 26 96 27 158 4 196 -6 10 -7
6 -4 -15 12 -69 11 -83 -10 -155 -23 -76 -59 -225 -71 -292 -5 -29 -10 -35
-22 -30 -16 5 -16 5 -1 -10 9 -9 19 -36 23 -59 4 -24 11 -48 15 -54 13 -15 -6
-55 -25 -55 -9 0 -62 15 -118 34 -56 19 -129 40 -163 47 -54 11 -59 14 -45 26
15 11 13 12 -11 3 -16 -5 -40 -10 -54 -10 -29 0 -231 -67 -252 -83 -10 -9 -18
-6 -31 11 -10 12 -23 22 -29 22 -24 0 -22 24 4 46 16 13 25 24 21 24 -4 0 4
14 19 31 14 17 23 34 20 37 -3 4 -9 2 -13 -4 -4 -6 -24 -31 -45 -56 -21 -26
-39 -59 -40 -74 -2 -17 -9 -28 -20 -30 -9 -1 -15 2 -11 7 3 5 0 9 -6 9 -6 0
-9 4 -6 9 4 5 -2 7 -13 4 -12 -3 -24 3 -35 18 -9 13 -16 19 -16 14 0 -6 -5 -3
-10 5 -8 11 -9 8 -4 -12 5 -24 -4 -37 -19 -25 -2 1 -11 -4 -19 -10 -8 -7 -18
-9 -22 -5 -4 4 -15 7 -24 8 -38 2 -141 50 -162 76 l-19 23 6 -23 c5 -22 4 -23
-33 -16 -22 4 -49 11 -61 15 -17 6 -23 5 -23 -5 0 -9 -35 -27 -87 -46 -49 -17
-101 -39 -118 -49 -52 -30 -64 -32 -85 -11 -29 29 -27 91 5 128 19 23 21 29 9
28 -12 -1 -17 10 -20 44 -2 25 -18 101 -35 170 -47 197 -48 202 -49 261 0 119
46 197 200 333 36 31 70 62 75 67 6 6 39 40 74 75 91 92 59 79 -40 -16 -73
-69 -155 -146 -182 -168 -73 -61 -177 -209 -177 -252 0 -6 -4 -10 -9 -10 -5 0
-12 -14 -16 -30 -4 -17 -10 -28 -15 -25 -4 3 -6 -5 -2 -17 4 -15 2 -19 -7 -13
-10 6 -11 2 -6 -15 6 -20 5 -22 -11 -16 -15 6 -16 4 -7 -5 6 -6 9 -17 6 -25
-3 -7 5 -27 16 -43 12 -16 21 -33 21 -38 0 -4 -5 -1 -10 7 -6 9 -10 10 -10 3
0 -6 4 -14 9 -18 5 -3 9 -19 9 -35 -1 -18 -5 -27 -12 -23 -6 4 -5 -1 3 -10 14
-17 26 -24 17 -9 -3 5 2 9 10 9 10 0 11 -4 4 -11 -14 -14 -13 -29 2 -20 6 4 8
3 4 -4 -3 -6 -2 -13 4 -17 5 -3 10 -12 10 -18 0 -7 -11 2 -25 18 -29 35 -34
19 -5 -17 22 -28 15 -47 -7 -20 -8 9 -5 -1 7 -23 l22 -40 -33 35 c-32 35 -31
27 3 -22 24 -35 23 -45 -4 -22 l-21 19 18 -27 c9 -15 22 -25 28 -21 6 3 7 1 3
-6 -4 -6 -3 -17 2 -24 12 -16 11 -48 -2 -44 -5 2 -12 9 -14 17 -3 7 0 10 7 6
20 -13 12 10 -11 30 -17 14 -20 15 -9 2 7 -9 10 -22 6 -27 -7 -12 19 -66 36
-77 7 -4 7 1 -1 16 -8 15 -8 20 -1 16 6 -4 16 -16 22 -28 8 -15 8 -19 0 -14
-6 4 -11 2 -11 -4 0 -6 -5 -8 -12 -4 -9 5 -8 2 1 -9 11 -14 17 -15 28 -6 11 9
17 9 26 0 9 -10 8 -11 -5 -6 -14 6 -17 1 -14 -32 2 -29 6 -37 19 -35 23 4 22
1 -13 -43 -16 -21 -30 -47 -30 -59 -1 -19 -3 -18 -23 8 -36 48 -75 158 -107
299 -63 284 -15 487 174 731 91 119 103 132 184 197 46 37 122 83 205 123 144
70 179 81 277 91 36 3 83 9 104 13 51 9 132 6 231 -7z m-1085 -741 c0 -5 -5
-10 -11 -10 -5 0 -7 5 -4 10 3 6 8 10 11 10 2 0 4 -4 4 -10z m-1 -54 c-3 -3
-11 5 -18 17 -13 21 -12 21 5 5 10 -10 16 -20 13 -22z m-11 -16 c7 -11 11 -20
9 -20 -2 0 -12 9 -22 20 -10 11 -14 20 -9 20 5 0 15 -9 22 -20z m1778 -387
c-8 -15 -15 -25 -16 -21 0 12 23 58 27 54 3 -2 -2 -17 -11 -33z m-643 -108
c-7 -19 -51 -31 -65 -17 -6 6 -7 16 -3 22 6 9 10 9 16 -1 7 -12 11 -11 25 3
20 19 36 15 27 -7z m-140 -1 c4 -1 11 -2 17 -3 5 0 14 -10 20 -21 8 -16 8 -18
-4 -14 -10 4 -21 -7 -34 -33 -22 -42 -16 -76 17 -100 10 -7 22 -25 26 -40 6
-25 8 -26 15 -8 4 11 6 40 5 65 -1 25 3 54 7 65 7 15 4 14 -11 -5 -21 -25 -28
-45 -13 -36 11 6 9 -31 -2 -41 -4 -5 -7 -3 -6 2 5 22 -1 36 -11 29 -8 -4 -9 1
-4 16 5 16 4 20 -5 15 -9 -6 -9 -3 -2 11 10 20 12 26 12 46 0 6 3 8 7 5 3 -4
12 -2 18 3 26 22 43 0 50 -63 4 -34 9 -70 11 -81 5 -29 35 -57 81 -78 34 -15
40 -22 36 -41 -5 -21 -5 -21 9 -3 18 23 38 14 38 -17 1 -19 2 -20 10 -5 8 14
16 14 45 5 23 -7 35 -17 35 -28 0 -13 16 -23 56 -36 30 -9 60 -25 65 -35 5
-10 16 -18 24 -18 8 0 22 -11 30 -24 9 -13 28 -26 44 -29 37 -8 55 -61 34
-100 -7 -15 -15 -27 -16 -27 -1 -1 -27 -3 -57 -6 -30 -3 -71 -9 -90 -14 -49
-13 -100 -59 -102 -92 -1 -15 -8 -30 -15 -33 -11 -3 -9 -13 7 -44 24 -48 26
-64 3 -36 -16 20 -16 16 4 -32 4 -11 3 -14 -5 -9 -7 4 -12 2 -12 -6 0 -10 -2
-10 -9 1 -5 8 -7 21 -3 29 3 10 1 13 -6 8 -7 -4 -12 -18 -12 -30 0 -27 -36
-40 -65 -23 -12 6 -20 5 -25 -3 -4 -7 -24 -13 -44 -14 -35 -1 -36 0 -36 38 0
50 -10 42 -12 -10 -1 -39 -1 -39 -39 -36 -42 4 -55 23 -38 54 6 11 8 22 6 25
-11 10 -28 -40 -23 -63 5 -17 3 -22 -8 -18 -7 3 -30 -2 -50 -10 -35 -15 -36
-14 -36 7 0 12 -4 18 -8 12 -4 -5 -26 -10 -48 -10 -33 -1 -41 2 -37 15 3 9 2
11 -4 4 -12 -17 -71 -22 -115 -11 -28 7 -38 15 -39 31 -1 17 -2 17 -6 4 -2
-10 -13 -18 -23 -18 -10 0 -25 -3 -34 -6 -11 -4 -18 4 -25 28 -7 24 -9 27 -10
11 -1 -12 -5 -24 -11 -28 -11 -7 -42 49 -32 60 4 5 2 5 -4 2 -8 -5 -11 2 -10
17 0 13 5 22 10 19 5 -3 6 0 4 8 -3 8 -10 13 -16 12 -8 -2 -9 5 -2 22 20 52
-9 99 -73 116 -21 6 -82 12 -134 13 -51 2 -95 5 -96 7 -38 55 -39 58 -12 96
14 21 25 52 25 69 0 35 31 70 54 61 9 -4 18 -2 22 4 4 7 10 6 18 0 7 -6 16 -8
20 -4 11 11 36 12 36 2 0 -6 5 -7 10 -4 6 4 8 15 5 25 -7 21 8 33 45 38 14 1
39 7 55 12 17 6 35 11 40 12 6 1 36 9 67 19 l57 17 15 -23 c14 -21 13 -24 -6
-41 -15 -14 -36 -19 -78 -19 -32 0 -62 -4 -66 -8 -4 -4 5 -8 22 -8 85 -1 104
-3 104 -13 0 -5 7 -1 16 10 8 10 13 12 9 4 -4 -8 6 -1 20 15 15 17 24 23 19
15 -5 -10 0 -8 14 4 31 27 27 36 -10 34 -46 -4 -51 30 -9 55 17 10 40 31 51
47 12 17 26 30 31 30 10 0 12 -63 2 -74 -4 -3 -8 -13 -9 -21 -5 -32 32 9 59
66 16 32 33 59 38 59 5 0 9 21 9 48 0 36 -3 44 -11 32 -9 -12 -10 -11 -6 8 3
12 2 20 -3 17 -4 -3 -10 2 -14 10 -3 8 0 14 6 12 7 -1 12 4 13 12 0 16 45 27
45 11 0 -6 5 -10 11 -10 5 0 8 4 4 9 -6 11 25 20 40 12 6 -3 13 -6 18 -7z
m-788 -160 l7 -109 40 -37 c35 -32 45 -36 83 -34 44 4 64 -11 43 -32 -13 -13
-125 13 -148 33 -9 8 -22 15 -28 15 -27 0 -44 48 -39 111 5 51 1 72 -20 124
-21 52 -23 65 -13 77 11 11 17 9 40 -12 26 -24 28 -33 35 -136z m1525 99 c0
-33 4 -53 8 -45 18 28 76 -84 96 -188 2 -8 7 -26 13 -40 6 -14 16 -43 24 -65
7 -22 17 -44 21 -49 13 -16 9 -53 -7 -66 -16 -13 -35 -6 -35 15 0 22 -59 65
-83 61 -12 -2 -30 1 -40 6 -23 12 -74 22 -65 13 3 -4 12 -8 20 -9 7 -2 26 -8
41 -14 16 -7 36 -12 46 -12 18 0 46 -28 69 -68 15 -27 0 -61 -51 -116 -36 -38
-45 -39 -123 -4 -26 11 -30 17 -23 35 17 47 -11 111 -52 120 -16 3 -37 16 -46
29 -8 13 -21 24 -29 24 -7 0 -19 9 -27 20 -8 11 -34 26 -58 33 -26 8 -44 19
-44 27 0 12 18 15 90 15 80 0 94 3 125 25 71 51 92 91 64 121 -13 14 -15 24
-8 42 6 12 10 42 9 66 -1 36 2 45 22 54 13 5 23 14 23 19 0 4 5 8 10 8 6 0 10
-26 10 -57z m-1617 -76 c7 4 5 -2 -3 -12 -14 -17 -13 -18 3 -12 17 6 16 3 -4
-30 -13 -20 -17 -33 -11 -29 15 9 15 1 1 -26 -9 -18 -9 -20 4 -15 11 4 14 1
11 -7 -3 -7 2 -19 11 -26 14 -12 14 -15 -2 -39 -11 -18 -12 -22 -2 -14 11 9
20 6 42 -17 18 -17 24 -31 18 -35 -6 -3 -11 -15 -11 -27 0 -11 -9 -31 -20 -45
-11 -14 -20 -30 -20 -36 0 -5 10 3 22 19 13 16 25 30 29 32 3 1 4 14 1 28 -4
21 -1 25 14 22 15 -2 20 -13 22 -46 3 -36 -2 -49 -27 -78 -35 -40 -35 -40 -16
-74 25 -44 19 -59 -20 -57 -34 2 -39 8 -38 45 1 10 -2 10 -13 1 -17 -14 -18
-6 -3 24 9 19 7 19 -10 -3 -18 -21 -20 -21 -15 -5 4 11 4 17 0 13 -4 -4 -28
16 -52 43 -49 55 -55 86 -26 134 21 35 57 150 66 214 4 24 12 53 18 65 11 19
13 19 16 3 2 -10 8 -14 15 -10z m-73 -81 c0 -12 -4 -27 -9 -35 -9 -14 -23 21
-35 89 l-6 34 25 -34 c14 -19 25 -43 25 -54z m1821 -39 c-10 -9 -11 -8 -5 6 3
10 9 15 12 12 3 -3 0 -11 -7 -18z m-1671 -101 c20 -25 4 -18 -27 10 -20 19
-22 24 -7 16 11 -6 26 -18 34 -26z m344 -521 c3 -8 1 -15 -3 -15 -5 0 -11 7
-15 15 -3 8 -1 15 3 15 5 0 11 -7 15 -15z m826 -115 c-3 -14 -11 -23 -16 -20
-5 3 -8 9 -6 14 2 5 -2 23 -8 39 -8 23 -7 33 2 38 17 11 37 -39 28 -71z m-821
17 c1 -28 -2 -38 -11 -35 -18 6 -23 75 -5 75 8 0 14 -14 16 -40z m41 21 c8
-21 9 -21 10 -3 0 18 2 18 20 -5 l20 -25 0 23 c0 12 6 22 13 22 9 0 13 -18 15
-55 2 -60 -10 -72 -27 -25 -12 37 -20 39 -13 4 4 -20 1 -25 -9 -22 -8 2 -15
17 -17 31 -2 15 -7 27 -11 27 -5 0 -6 -11 -3 -25 5 -27 -12 -35 -22 -9 -12 32
-5 84 11 84 2 0 8 -10 13 -22z m617 -47 c5 -59 -11 -101 -32 -80 -7 8 -16 38
-18 67 -5 44 -3 53 9 48 8 -3 17 1 21 10 9 23 15 10 20 -45z m87 34 c8 -31 -2
-75 -18 -75 -7 0 -11 19 -11 50 0 53 18 69 29 25z m-574 3 c0 -5 4 -7 8 -4 5
3 10 -19 11 -49 2 -45 -1 -55 -19 -65 -17 -9 -22 -7 -30 15 -10 27 -14 98 -5
107 8 8 35 5 35 -4z m160 -8 c-9 -6 -10 -10 -3 -10 6 0 15 5 18 10 10 16 45
-29 46 -59 3 -54 -1 -76 -18 -88 -22 -17 -35 -16 -59 1 -15 12 -19 27 -20 86
-1 39 2 66 6 60 5 -8 11 -6 20 5 7 8 15 13 19 10 3 -3 -1 -10 -9 -15z m255
-27 c27 -57 0 -120 -47 -108 -25 6 -26 10 -24 70 0 35 4 61 7 59 4 -2 9 3 13
11 8 22 33 8 51 -32z m115 12 c4 -37 0 -65 -9 -65 -10 0 -18 55 -13 84 5 22
19 9 22 -19z m80 5 c4 -29 0 -50 -10 -50 -5 0 -10 19 -10 42 0 39 15 45 20 8z
m-511 6 c7 -9 11 -38 9 -73 -3 -54 -5 -58 -28 -58 -34 0 -54 43 -45 96 4 21
11 37 15 34 5 -3 11 -1 15 5 9 14 20 13 34 -4z m229 -21 c3 -16 5 -34 4 -39
-2 -4 -3 -24 -4 -43 -1 -39 -24 -57 -63 -47 -20 5 -25 13 -26 38 -1 17 -3 43
-4 57 -4 29 2 42 30 57 34 18 56 10 63 -23z"/>
<path d="M2906 4374 c-23 -23 -20 -30 4 -9 11 10 20 20 20 22 0 7 -9 2 -24
-13z"/>
<path d="M2949 4369 l-24 -20 28 17 c15 9 27 18 27 20 0 8 -8 4 -31 -17z"/>
<path d="M2878 4375 c-3 -3 -16 -8 -28 -10 -30 -6 -34 -11 -16 -18 8 -3 25 3
38 13 13 11 20 19 17 20 -3 0 -8 -2 -11 -5z"/>
<path d="M2980 4365 c-11 -13 -10 -14 4 -9 9 3 16 10 16 15 0 13 -6 11 -20 -6z"/>
<path d="M3194 4358 l-19 -23 23 19 c21 18 27 26 19 26 -2 0 -12 -10 -23 -22z"/>
<path d="M3279 4361 c-13 -11 -22 -21 -19 -24 3 -2 16 6 30 19 29 29 22 32
-11 5z"/>
<path d="M3319 4359 c-23 -19 -23 -20 -2 -10 12 6 25 16 28 21 10 16 -1 12
-26 -11z"/>
<path d="M3015 4360 c-3 -6 1 -7 9 -4 18 7 21 14 7 14 -6 0 -13 -4 -16 -10z"/>
<path d="M3155 4360 c-3 -6 1 -7 9 -4 18 7 21 14 7 14 -6 0 -13 -4 -16 -10z"/>
<path d="M3232 4354 c-7 -8 -8 -14 -3 -14 10 0 25 19 20 25 -2 1 -10 -3 -17
-11z"/>
<path d="M3349 4353 c-13 -17 -13 -17 6 -3 11 8 22 16 24 17 2 2 0 3 -6 3 -6
0 -17 -8 -24 -17z"/>
<path d="M2762 4343 c-15 -13 -15 -13 3 -5 11 6 24 10 28 10 16 0 17 9 2 9 -9
0 -23 -7 -33 -14z"/>
<path d="M3480 4347 c0 -3 15 -10 32 -16 18 -6 28 -7 23 -2 -12 10 -55 25 -55
18z"/>
<path d="M3580 4295 c0 -2 10 -10 23 -16 20 -11 21 -11 8 4 -13 16 -31 23 -31
12z"/>
<path d="M3626 4236 c5 -14 53 -40 61 -32 4 4 -51 46 -61 46 -3 0 -3 -6 0 -14z"/>
<path d="M3728 4165 c13 -25 52 -62 52 -48 0 5 -14 22 -31 39 -23 21 -29 23
-21 9z"/>
<path d="M3810 4092 c0 -12 44 -52 58 -52 6 0 -2 14 -18 30 -30 31 -40 36 -40
22z"/>
<path d="M2419 3993 c-22 -46 -22 -50 1 -15 13 18 20 35 18 37 -3 3 -11 -7
-19 -22z"/>
<path d="M2429 3968 c-5 -11 -6 -68 -1 -64 6 6 11 66 5 66 -1 0 -3 -1 -4 -2z"/>
<path d="M2462 3870 c-12 -21 -22 -45 -22 -52 1 -7 12 9 26 35 31 59 28 71 -4
17z"/>
<path d="M2324 3828 c3 -10 1 -18 -3 -18 -13 0 -4 -52 28 -160 16 -52 34 -120
41 -150 7 -30 16 -62 20 -70 5 -8 10 -30 13 -49 9 -53 18 -56 94 -36 37 11 94
19 125 20 59 1 86 9 43 13 -38 3 -49 6 -57 17 -5 6 -8 5 -8 -2 0 -7 -4 -13
-10 -13 -5 0 -7 8 -4 18 5 14 4 14 -4 3 -14 -19 -42 -23 -42 -6 0 8 5 17 10
20 6 3 10 11 10 18 0 15 -15 -1 -34 -38 -16 -30 -16 -30 -17 -5 -1 14 0 33 1
44 1 12 -3 16 -10 11 -9 -6 -9 -2 -1 13 6 12 13 36 15 54 l4 33 -19 -24 c-10
-13 -19 -28 -19 -35 0 -6 5 -4 10 4 15 24 11 -2 -5 -30 -9 -15 -15 -19 -15
-10 0 9 -6 5 -15 -10 -25 -44 -16 -12 15 52 40 85 31 84 -14 -2 -20 -38 -39
-70 -41 -70 -3 0 11 34 30 77 20 42 33 78 30 81 -3 3 -5 1 -5 -4 0 -6 -7 -19
-16 -30 -15 -18 -15 -18 -8 5 4 18 3 22 -7 16 -9 -6 -10 -3 -5 11 19 45 15 46
-9 1 -15 -27 -29 -47 -31 -44 -3 2 4 31 15 63 12 32 19 60 16 62 -2 2 -7 -7
-10 -21 -4 -15 -14 -32 -23 -39 -12 -10 -14 -10 -8 0 4 7 9 25 11 40 l4 27
-15 -30 c-13 -26 -14 -27 -9 -5 3 14 7 43 10 65 l5 40 -13 -45 -13 -45 -8 38
c-4 21 -11 35 -16 32 -8 -5 15 89 28 109 3 5 0 6 -6 2 -7 -4 -12 -15 -13 -24
0 -13 -2 -13 -6 -3 -4 10 -9 8 -19 -10 l-14 -24 4 26 c2 14 0 32 -6 40 -8 11
-9 10 -4 -3z m28 -70 c-8 -8 -9 -4 -5 13 4 13 8 18 11 10 2 -7 -1 -18 -6 -23z
m88 -235 c-11 -17 -11 -17 -6 0 3 10 6 24 7 30 0 9 2 9 5 0 3 -7 0 -20 -6 -30z"/>
<path d="M2371 3740 c0 -8 4 -24 9 -35 5 -13 9 -14 9 -5 0 8 -4 24 -9 35 -5
13 -9 14 -9 5z"/>
<path d="M2536 3475 c-9 -26 -7 -32 5 -12 6 10 9 21 6 23 -2 3 -7 -2 -11 -11z"/>
<path d="M2541 3433 c-10 -26 -10 -27 4 -9 8 11 15 23 15 28 0 15 -7 8 -19
-19z"/>
<path d="M2880 3403 c0 -7 -5 -12 -11 -10 -6 1 -14 -5 -16 -13 -4 -13 -3 -13
6 0 6 8 11 10 11 4 0 -18 -13 -24 -27 -13 -10 9 -13 8 -13 -4 0 -21 40 -30 40
-9 1 15 3 14 15 -2 11 -14 15 -16 15 -5 0 11 2 11 9 1 7 -11 9 -10 14 3 5 10
3 14 -5 9 -8 -5 -9 2 -4 22 5 21 4 25 -4 14 -9 -13 -11 -13 -20 0 -6 10 -10
11 -10 3z m15 -23 c3 -5 1 -10 -4 -10 -6 0 -11 5 -11 10 0 6 2 10 4 10 3 0 8
-4 11 -10z"/>
<path d="M3376 3396 c6 -16 4 -17 -14 -7 -14 7 -23 8 -27 1 -4 -6 -10 -8 -15
-5 -5 3 -16 -7 -24 -23 -12 -24 -13 -29 -1 -29 8 0 16 6 19 13 3 8 12 11 21 8
8 -3 15 -1 15 6 0 6 -4 8 -10 5 -6 -3 -7 1 -4 10 6 14 8 14 19 -1 8 -12 14
-14 19 -5 4 6 11 9 16 6 10 -6 35 23 27 32 -4 3 -9 -2 -13 -11 -6 -15 -7 -15
-20 1 -13 17 -14 17 -8 -1z m-65 -39 c-10 -9 -11 -8 -5 6 3 10 9 15 12 12 3
-3 0 -11 -7 -18z"/>
<path d="M3430 3389 c-7 -11 -9 -23 -6 -27 3 -3 6 0 6 6 0 7 3 11 8 11 4 -1
14 -1 23 0 20 1 33 28 13 28 -7 0 -11 -4 -8 -9 3 -4 -2 -8 -11 -8 -9 0 -13 5
-10 10 3 6 4 10 1 10 -3 0 -10 -9 -16 -21z"/>
<path d="M3502 3397 c-10 -11 -7 -13 16 -11 15 1 29 3 32 4 3 1 9 2 13 1 5 -1
6 3 2 9 -5 8 -11 8 -19 1 -9 -7 -16 -7 -23 0 -7 7 -14 5 -21 -4z"/>
<path d="M3952 3355 c-17 -37 -14 -45 4 -12 9 16 14 31 11 33 -2 2 -9 -7 -15
-21z"/>
<path d="M2937 3353 c-4 -3 -7 -11 -7 -17 0 -6 5 -5 12 2 6 6 9 14 7 17 -3 3
-9 2 -12 -2z"/>
<path d="M2980 3310 c8 -5 20 -10 25 -10 6 0 3 5 -5 10 -8 5 -19 10 -25 10 -5
0 -3 -5 5 -10z"/>
<path d="M3628 3263 c7 -3 16 -2 19 1 4 3 -2 6 -13 5 -11 0 -14 -3 -6 -6z"/>
<path d="M3120 3181 c0 -6 4 -13 10 -16 6 -3 7 1 4 9 -7 18 -14 21 -14 7z"/>
<path d="M3115 3056 c-4 -25 -3 -57 3 -73 8 -23 9 -16 11 45 0 39 -1 72 -3 72
-3 0 -8 -20 -11 -44z"/>
<path d="M3213 3040 c-1 -11 0 -20 2 -20 2 0 9 9 15 20 8 15 8 20 -3 20 -7 0
-13 -9 -14 -20z"/>
<path d="M3061 2904 c-12 -15 -21 -33 -21 -41 0 -7 -11 -36 -25 -63 -14 -27
-25 -60 -25 -73 0 -14 -7 -43 -15 -67 -18 -50 -12 -92 21 -165 35 -77 84 -106
114 -70 7 8 15 41 17 73 6 73 13 80 13 14 0 -28 5 -63 10 -77 9 -23 14 -26 38
-21 35 9 94 70 86 91 -4 8 -1 28 5 44 10 23 9 41 -5 92 -9 35 -17 81 -18 101
-1 23 -9 45 -24 61 -16 17 -22 32 -18 45 5 13 -2 30 -19 50 -35 42 -57 33 -55
-22 1 -22 1 -61 0 -86 -2 -44 -2 -44 -12 -15 -5 17 -13 57 -16 89 -4 33 -12
61 -18 63 -7 2 -21 -8 -33 -23z"/>
<path d="M3274 2810 c13 -81 24 -134 40 -185 11 -39 15 -44 15 -22 1 16 -4 37
-10 48 -11 22 -19 108 -10 113 3 2 15 -6 26 -17 11 -11 14 -16 6 -12 -10 6
-12 4 -7 -4 6 -9 12 -9 24 1 10 7 14 8 9 3 -4 -4 0 -17 10 -27 15 -17 18 -17
34 -2 17 15 18 15 15 -3 -3 -15 1 -19 17 -18 12 1 23 9 25 18 2 10 18 19 39
23 22 4 31 9 22 14 -7 5 -22 5 -33 1 -38 -12 -70 -3 -122 36 -17 13 -35 23
-39 23 -5 0 -22 12 -38 28 l-30 27 7 -45z m130 -78 c3 -5 -1 -9 -9 -9 -8 0
-12 4 -9 9 3 4 7 8 9 8 2 0 6 -4 9 -8z"/>
<path d="M2956 2786 c-9 -18 -28 -45 -42 -59 -14 -15 -21 -27 -17 -27 4 0 2
-5 -4 -11 -13 -13 -6 -42 8 -33 5 3 9 1 9 -5 0 -5 -5 -11 -12 -13 -6 -2 -8
-11 -4 -19 15 -31 36 -64 37 -59 0 3 2 19 5 35 5 42 23 132 35 178 13 50 8 55
-15 13z"/>
<path d="M2785 2641 c-22 -11 -48 -21 -57 -25 -10 -3 -18 -10 -18 -16 0 -12
22 -9 32 5 5 6 8 6 8 -1 0 -26 46 -10 67 22 25 39 23 40 -32 15z m10 -30 c-9
-8 -36 -10 -30 -2 2 4 11 8 20 8 8 0 13 -3 10 -6z"/>
<path d="M3416 2640 c12 -13 27 -21 33 -19 6 2 -4 12 -22 22 l-32 18 21 -21z"/>
<path d="M3490 2610 c34 -11 60 -11 35 0 -11 5 -29 8 -40 8 -16 0 -15 -2 5 -8z"/>
<path d="M2890 2590 c0 -5 5 -10 11 -10 5 0 7 5 4 10 -3 6 -8 10 -11 10 -2 0
-4 -4 -4 -10z"/>
<path d="M2684 2535 c9 -24 70 -114 74 -110 5 5 -17 44 -51 90 -16 22 -27 31
-23 20z"/>
<path d="M3528 2480 c-21 -27 -38 -54 -38 -62 0 -7 6 -4 12 7 6 11 24 37 41
58 16 21 28 39 26 41 -2 2 -21 -18 -41 -44z"/>
<path d="M2934 2504 c3 -9 6 -21 6 -27 0 -7 13 -21 28 -32 l27 -20 -22 29
c-13 16 -23 37 -23 47 0 11 -5 19 -11 19 -6 0 -8 -7 -5 -16z"/>
<path d="M3310 2502 c0 -11 -9 -29 -20 -42 -11 -13 -20 -28 -20 -34 0 -6 11 2
25 18 22 25 35 76 20 76 -3 0 -5 -8 -5 -18z"/>
<path d="M2874 2404 c-3 -10 -10 -28 -15 -39 -12 -29 -27 -125 -19 -125 8 0
52 172 45 178 -2 3 -7 -4 -11 -14z"/>
<path d="M3015 2392 c17 -14 20 -24 14 -52 -9 -45 -5 -49 11 -10 l12 30 22
-27 c11 -15 20 -33 18 -40 -2 -7 2 -13 8 -13 14 0 12 40 -3 68 -6 13 -32 32
-57 43 -40 17 -43 17 -25 1z"/>
<path d="M3208 2388 c-31 -16 -38 -27 -47 -66 -5 -26 -8 -49 -5 -51 2 -2 7 10
10 28 4 19 12 30 19 27 16 -6 43 26 37 43 -3 8 0 11 6 7 5 -3 13 1 16 10 9 24
6 24 -36 2z m-5 -45 c-3 -7 -9 -10 -14 -7 -14 8 -11 21 5 21 8 0 12 -6 9 -14z"/>
<path d="M2936 2355 c-3 -8 -1 -15 4 -15 6 0 10 7 10 15 0 8 -2 15 -4 15 -2 0
-6 -7 -10 -15z"/>
<path d="M2934 2268 c0 -45 2 -55 8 -38 9 25 8 89 -2 95 -3 2 -6 -24 -6 -57z"/>
<path d="M3060 2316 c0 -2 7 -7 16 -10 8 -3 12 -2 9 4 -6 10 -25 14 -25 6z"/>
<path d="M3012 2260 c0 -19 2 -27 5 -17 2 9 2 25 0 35 -3 9 -5 1 -5 -18z"/>
<path d="M3904 2916 c3 -77 4 -76 -79 -138 -35 -26 -46 -29 -93 -26 -35 3 -49
1 -42 -6 5 -5 18 -11 27 -12 10 -2 27 -5 38 -7 11 -2 23 1 27 7 5 7 8 6 8 -3
0 -11 4 -10 16 5 8 10 13 12 9 4 -3 -8 8 1 26 20 17 19 29 29 25 23 -12 -22 4
-14 29 15 21 22 25 36 23 82 -1 30 -5 66 -9 80 -5 16 -7 0 -5 -44z"/>
</g>
</svg>
