<svg xmlns="http://www.w3.org/2000/svg" xmlns:xlink="http://www.w3.org/1999/xlink" width="500" zoomAndPan="magnify" viewBox="0 0 375 374.999991" height="500" preserveAspectRatio="xMidYMid meet" version="1.0"><defs><clipPath id="3aca38a26b"><path d="M 91.207031 37.5 L 294 37.5 L 294 337.5 L 91.207031 337.5 Z M 91.207031 37.5 " clip-rule="nonzero"/></clipPath></defs><rect x="-37.5" width="450" fill="#ffffff" y="-37.499999" height="449.999989" fill-opacity="1"/><rect x="-37.5" width="450" fill="#ffffff" y="-37.499999" height="449.999989" fill-opacity="1"/><rect x="-37.5" width="450" fill="#ffffff" y="-37.499999" height="449.999989" fill-opacity="1"/><g clip-path="url(#3aca38a26b)"><path fill="#000000" d="M 134.195312 226.164062 L 133.988281 226.164062 C 134.003906 225.300781 133.949219 224.441406 133.828125 223.589844 C 132.414062 217.03125 131.207031 210.453125 131.308594 203.707031 C 131.34375 203.296875 131.308594 202.894531 131.210938 202.492188 C 131.113281 202.09375 130.949219 201.722656 130.726562 201.375 C 130.503906 201.03125 130.230469 200.730469 129.910156 200.472656 C 129.585938 200.21875 129.230469 200.019531 128.84375 199.882812 C 124.652344 197.898438 120.46875 195.714844 117.644531 191.898438 C 110.445312 182.21875 105.757812 171.246094 101.125 160.222656 C 100.710938 159.242188 100.316406 157.839844 101.484375 157.097656 C 102.65625 156.351562 103.574219 157.527344 104.285156 158.324219 C 112.21875 167.160156 121.257812 174.9375 128.824219 184.125 L 128.96875 184.257812 L 128.78125 184.160156 C 128.238281 181.078125 126.304688 178.636719 124.984375 175.917969 C 122.121094 170.0625 119.949219 163.964844 118.464844 157.621094 C 116.984375 151.28125 116.230469 144.851562 116.203125 138.339844 C 116.203125 137.628906 115.851562 136.542969 116.933594 136.371094 C 118.011719 136.199219 118.28125 137.082031 118.496094 138.003906 C 119.132812 140.566406 120.15625 142.960938 121.574219 145.1875 C 126.039062 152.289062 128.929688 159.976562 130.246094 168.257812 C 131.09375 173.851562 132.28125 179.390625 133.421875 185.515625 C 134.871094 181.78125 134.824219 178.332031 135.777344 175.074219 C 137.046875 170.71875 138.558594 166.300781 137.738281 161.605469 C 137.433594 159.808594 137.324219 158.011719 137.199219 156.152344 C 136.796875 150.136719 135.402344 144.765625 130.578125 140.375 C 127.769531 137.785156 125.300781 134.90625 123.164062 131.738281 C 121.027344 128.570312 119.289062 125.199219 117.941406 121.628906 C 116.03125 116.671875 114.144531 111.707031 112.273438 106.730469 C 111.894531 105.714844 111.113281 104.511719 112.398438 103.660156 C 113.683594 102.808594 114.484375 104.027344 115.277344 104.753906 C 119.246094 108.429688 123.796875 111.363281 127.871094 114.847656 C 127.726562 113.804688 127.554688 112.773438 127.441406 111.730469 C 126.828125 106.660156 126.035156 101.523438 127.324219 96.429688 C 127.539062 95.535156 127.761719 94.457031 129.003906 94.355469 C 130.398438 94.242188 130.742188 95.308594 131.027344 96.332031 C 131.980469 99.449219 133.339844 102.375 135.105469 105.113281 C 141.554688 115.726562 143.308594 127.265625 141.5625 139.363281 C 140.773438 144.910156 141.429688 150.40625 141.238281 155.972656 C 142.535156 152.453125 144.835938 149.183594 145.351562 145.648438 C 146.136719 141.089844 146.550781 136.496094 146.582031 131.871094 C 146.539062 125.667969 146.097656 119.492188 145.683594 113.3125 C 145.015625 102.96875 148.128906 93.351562 151.296875 83.726562 C 151.496094 83.113281 151.730469 82.488281 152.457031 82.539062 C 153.1875 82.59375 153.4375 83.359375 153.617188 84.058594 C 154.273438 86.625 153.976562 89.273438 154.320312 91.859375 C 155.375 100.140625 155.074219 108.371094 153.417969 116.554688 C 151.84375 124.636719 150.207031 132.609375 148.023438 140.519531 C 150.605469 136.648438 153.105469 132.761719 155.445312 128.792969 C 156.101562 127.671875 156.066406 126.40625 157.089844 125.203125 C 159.925781 121.753906 163.710938 118.269531 163.890625 113.714844 C 164.054688 109.488281 164.621094 105.125 164.171875 100.992188 C 163.496094 94.707031 162.496094 88.566406 163.46875 82.269531 C 164.191406 76.496094 165.71875 70.9375 168.054688 65.605469 C 168.390625 64.894531 168.632812 63.988281 169.601562 64.085938 C 170.574219 64.1875 170.558594 65.226562 170.710938 65.945312 C 171.359375 68.917969 171.851562 71.925781 172.582031 74.871094 C 173.808594 80.191406 174.339844 85.578125 174.171875 91.035156 C 177.242188 90.441406 179.96875 89.949219 181.011719 93.871094 C 181.324219 95.039062 182.558594 94.636719 183 93.539062 C 184.125 91.082031 184.984375 88.53125 185.570312 85.890625 C 186.949219 77.996094 188.34375 70.121094 192.769531 63.144531 C 195.164062 59.589844 197.125 55.808594 198.652344 51.804688 C 198.914062 51.066406 198.914062 50.007812 199.992188 50.332031 C 200.835938 50.554688 200.53125 51.445312 200.46875 52.128906 C 199.914062 58.183594 198.933594 64.167969 197.527344 70.085938 C 195.96875 76.964844 192.722656 83.105469 189.3125 89.183594 L 189.3125 89.335938 L 189.3125 89.210938 C 197.3125 83.714844 205.144531 78.042969 211.183594 70.308594 C 213.726562 67.222656 215.371094 63.714844 216.121094 59.785156 C 216.738281 55.734375 218.332031 52.109375 220.898438 48.914062 C 224.171875 44.953125 228.445312 41.980469 232.0625 38.316406 C 232.539062 37.839844 233.113281 37.535156 233.671875 37.992188 C 234.230469 38.453125 233.988281 39.070312 233.671875 39.636719 C 232.566406 41.503906 231.503906 43.410156 230.378906 45.277344 C 225.882812 52.683594 224.53125 61.4375 219.828125 68.773438 L 219.71875 68.847656 L 219.800781 68.785156 C 223.039062 67.328125 225.691406 65.164062 227.761719 62.28125 C 232.980469 54.847656 239.914062 49.632812 248.964844 48.140625 C 254.058594 47.304688 259.132812 46.867188 263.71875 44.28125 C 264.242188 43.972656 265.070312 43.820312 265.347656 44.460938 C 265.707031 45.292969 264.863281 45.597656 264.25 45.941406 C 259.921875 48.382812 255.488281 50.664062 251.539062 53.726562 C 248.027344 56.324219 244.308594 58.589844 240.382812 60.515625 C 232.753906 64.472656 225.269531 68.703125 217.425781 72.3125 C 211.523438 75.007812 205.730469 78.203125 200.785156 83.195312 C 204.886719 81.886719 208.773438 81.480469 212.621094 80.816406 C 213.308594 80.707031 213.957031 80.488281 214.566406 80.152344 C 225.035156 74.074219 236.210938 71.621094 248.273438 73.34375 C 249.617188 73.605469 250.96875 73.625 252.320312 73.402344 C 253.671875 73.179688 254.945312 72.730469 256.136719 72.050781 C 256.832031 71.683594 257.570312 71.433594 258.347656 71.308594 C 258.835938 71.199219 259.4375 71.226562 259.636719 71.871094 C 259.695312 72.089844 259.683594 72.308594 259.601562 72.519531 C 259.515625 72.730469 259.378906 72.894531 259.183594 73.011719 C 258.707031 73.394531 258.191406 73.714844 257.636719 73.972656 C 253.140625 75.84375 248.640625 77.738281 244.089844 79.503906 C 240.601562 80.921875 237 81.929688 233.28125 82.519531 C 229.5625 83.113281 225.824219 83.273438 222.066406 83.007812 C 216.277344 82.449219 210.542969 82.8125 204.867188 84.09375 C 201.828125 84.796875 198.917969 85.859375 196.140625 87.277344 C 193.359375 88.691406 190.792969 90.425781 188.441406 92.472656 C 192.597656 91.796875 195.636719 93.011719 198.667969 94.355469 C 200.902344 95.285156 203.21875 95.582031 205.613281 95.253906 C 206.652344 95.066406 207.695312 95.039062 208.746094 95.175781 C 214.335938 96.269531 219.980469 96.746094 225.675781 96.601562 C 226.871094 96.601562 228.375 96.546875 228.726562 98.039062 C 229.074219 99.53125 227.933594 100.355469 226.84375 100.859375 C 218.992188 104.449219 211.058594 107.511719 202.214844 104.214844 C 196.90625 102.230469 191.90625 99.503906 186.472656 97.832031 C 182.601562 96.648438 181.648438 97.148438 180.238281 100.976562 C 178.300781 106.238281 175.199219 110.664062 169.890625 112.898438 C 168.855469 113.339844 167.929688 113.945312 167.113281 114.71875 C 166.296875 115.492188 165.640625 116.382812 165.140625 117.390625 C 164.636719 118.289062 164.054688 119.183594 163.511719 120.082031 C 165.007812 120.261719 166.140625 119.285156 167.417969 118.800781 C 172.949219 116.699219 178.5625 115.394531 184.511719 116.410156 C 189.414062 117.238281 194.269531 118.289062 199.308594 118.097656 C 202.976562 117.964844 206.503906 116.554688 210.210938 116.957031 C 210.949219 117.039062 211.957031 116.589844 212.289062 117.550781 C 212.621094 118.511719 211.585938 118.863281 210.992188 119.285156 C 208.078125 121.332031 204.695312 122.6875 201.945312 125.003906 C 195.71875 130.210938 188.496094 131.289062 180.75 129.789062 C 175.613281 128.773438 170.546875 127.445312 165.410156 126.429688 C 162.8125 125.910156 159.789062 125.820312 158.214844 128.226562 C 153.78125 135.214844 149.21875 142.179688 145.945312 149.777344 C 145.160156 151.574219 143.984375 153.296875 144.226562 155.425781 L 144.027344 155.398438 L 144.207031 155.398438 C 145.753906 153.234375 148.480469 152.902344 150.503906 151.304688 C 152.554688 149.667969 154.71875 148.203125 157 146.90625 C 159.28125 145.613281 161.648438 144.5 164.105469 143.578125 C 166.558594 142.652344 169.070312 141.925781 171.640625 141.394531 C 174.210938 140.863281 176.804688 140.535156 179.425781 140.414062 C 186.128906 140.035156 192.921875 141.472656 199.53125 139.613281 C 199.699219 139.546875 199.871094 139.511719 200.050781 139.511719 C 200.230469 139.511719 200.402344 139.542969 200.570312 139.609375 C 200.738281 139.671875 200.886719 139.765625 201.019531 139.886719 C 201.152344 140.011719 201.253906 140.152344 201.332031 140.3125 C 201.421875 140.496094 201.46875 140.683594 201.484375 140.886719 C 201.496094 141.085938 201.472656 141.28125 201.40625 141.472656 C 201.34375 141.664062 201.246094 141.832031 201.113281 141.984375 C 200.984375 142.136719 200.828125 142.261719 200.648438 142.351562 C 199.109375 143.339844 197.507812 144.253906 195.996094 145.289062 C 181.730469 155.058594 165.925781 158.335938 148.886719 156.441406 C 145.519531 156.0625 143.121094 157.597656 142.058594 160.929688 C 139.609375 169.007812 137.941406 177.242188 137.046875 185.632812 C 136.53125 190.601562 136.585938 195.5625 137.21875 200.519531 C 140.34375 195.742188 143.117188 190.773438 145.539062 185.605469 C 146.257812 184.082031 147.109375 182.636719 148.097656 181.273438 C 149.085938 179.910156 150.195312 178.648438 151.417969 177.492188 C 152.644531 176.335938 153.964844 175.300781 155.386719 174.390625 C 156.804688 173.484375 158.296875 172.710938 159.859375 172.082031 C 168.855469 168.257812 178.160156 165.292969 187.308594 161.890625 C 187.980469 161.640625 188.710938 161.246094 189.234375 161.890625 C 189.753906 162.539062 189.234375 163.253906 188.835938 163.785156 C 186.507812 166.765625 185.011719 170.25 182.925781 173.367188 C 181.882812 174.984375 180.699219 176.492188 179.378906 177.890625 C 178.054688 179.289062 176.617188 180.554688 175.058594 181.6875 C 173.503906 182.824219 171.855469 183.804688 170.117188 184.636719 C 168.378906 185.464844 166.578125 186.128906 164.71875 186.628906 C 161.183594 187.597656 157.574219 188.828125 153.921875 188.695312 C 147.625 188.480469 144.550781 192 141.84375 196.902344 C 139.277344 201.527344 137.34375 206.175781 137.957031 211.527344 C 138.511719 216.019531 139.125 220.507812 140.097656 224.925781 C 141.285156 230.625 143.246094 236.042969 145.972656 241.1875 C 145.132812 238.269531 145.835938 235.386719 146.332031 232.621094 C 149.164062 216.59375 158.332031 204.480469 170.621094 194.378906 C 171.582031 193.578125 172.652344 192.296875 174.046875 193.273438 C 175.21875 194.109375 174.550781 195.5 174.433594 196.6875 C 173.824219 202.683594 170.773438 207.9375 169.253906 213.628906 C 168.890625 215.160156 168.367188 216.636719 167.683594 218.054688 C 167 219.472656 166.171875 220.804688 165.199219 222.042969 C 164.230469 223.28125 163.136719 224.40625 161.921875 225.410156 C 160.707031 226.414062 159.398438 227.273438 158 227.996094 C 153.328125 230.503906 150.929688 235.179688 148.101562 239.355469 C 147.890625 239.75 147.816406 240.167969 147.886719 240.613281 C 148.328125 243.871094 148.527344 247.167969 150.296875 250.132812 C 153.511719 255.445312 157.109375 260.492188 161.09375 265.261719 C 161.769531 266.070312 162.40625 266.894531 163.089844 267.695312 C 163.773438 268.492188 164.457031 269.257812 165.140625 270.039062 C 163.511719 264.121094 163 258.363281 164.339844 252.527344 C 166.839844 241.671875 170.882812 231.285156 174.398438 220.742188 C 174.632812 220.050781 174.804688 219.285156 175.683594 219.367188 C 176.566406 219.449219 176.753906 220.355469 176.828125 221.164062 C 177.3125 226.890625 177.898438 232.621094 178.210938 238.359375 C 178.375 240.953125 178.113281 243.503906 177.421875 246.011719 C 176.730469 248.519531 175.652344 250.847656 174.183594 252.996094 C 172.582031 255.5 171.179688 258.109375 169.972656 260.824219 C 167.859375 265.316406 169.171875 269.804688 169.972656 274.292969 C 170.09375 273.53125 170.121094 272.765625 170.0625 271.996094 C 169.964844 267.082031 173.542969 264.910156 177.941406 267.238281 C 179.503906 268.074219 180.855469 269.167969 182 270.515625 C 183.703125 272.53125 185.089844 274.746094 186.15625 277.15625 C 187.222656 279.570312 187.925781 282.085938 188.269531 284.703125 C 188.421875 285.734375 188.226562 286.875 189.683594 287.332031 C 188.769531 283.820312 188.273438 280.25 188.199219 276.621094 C 188.097656 267.53125 188.144531 258.445312 188.199219 249.351562 C 188.199219 248.496094 187.695312 247.222656 189.097656 246.96875 C 190.5 246.71875 190.707031 248.03125 191.058594 248.972656 C 192.777344 253.550781 194.378906 258.175781 196.726562 262.441406 C 203.382812 274.636719 204.085938 287.710938 202.644531 301.117188 C 202.566406 301.878906 202.546875 302.5 203.238281 302.910156 C 208.636719 306.40625 214.035156 309.808594 220.042969 313.011719 C 219.765625 311.628906 219.105469 310.457031 218.066406 309.503906 C 215.160156 307.050781 213.566406 303.78125 212.378906 300.253906 C 210.914062 295.765625 210.707031 291.167969 210.464844 286.558594 C 210.019531 277.824219 210.125 269.097656 210.777344 260.375 C 210.839844 259.59375 211.082031 259.003906 211.957031 258.921875 C 212.828125 258.839844 212.953125 259.433594 213.199219 260.027344 C 215.214844 264.757812 217.480469 269.390625 219.207031 274.222656 C 223.148438 285.214844 222.347656 296.582031 221.277344 307.894531 C 220.980469 311.089844 222.699219 314.28125 226.179688 316.164062 C 241.300781 324.355469 257.945312 327.507812 274.542969 330.765625 C 280.371094 331.914062 286.308594 331.960938 292.21875 332.101562 C 293.675781 332.101562 294.242188 333 293.800781 334.0625 C 293.144531 335.667969 292.460938 337.535156 290.023438 337.238281 C 284.625 336.59375 279.128906 336.109375 273.703125 335.335938 C 269.816406 334.777344 266.230469 333.082031 262.476562 331.960938 C 255.648438 329.929688 248.425781 329.5 241.785156 326.761719 C 238.296875 325.332031 234.589844 325.386719 230.929688 326.015625 C 225.71875 326.914062 220.511719 327.929688 215.375 329.167969 C 200.65625 332.757812 185.921875 334.050781 171.042969 330.234375 C 170.144531 329.992188 168.667969 330.144531 168.710938 328.644531 C 168.757812 327.148438 170.125 327.171875 171.257812 327.128906 C 173.058594 327.046875 175.011719 327.300781 176.738281 326.824219 C 183.054688 325.054688 189.472656 323.824219 195.996094 323.132812 C 202.636719 322.449219 209.277344 321.605469 215.789062 323.484375 C 218.015625 324.164062 220.292969 324.515625 222.621094 324.535156 C 224.949219 324.554688 227.234375 324.242188 229.472656 323.601562 C 227.472656 322.523438 225.371094 321.695312 223.175781 321.113281 C 217.734375 319.492188 212.894531 316.796875 208.65625 313.03125 C 207.753906 312.214844 206.855469 312.304688 205.75 312.386719 C 199.640625 312.84375 193.6875 314.585938 187.542969 314.628906 C 167.046875 314.78125 149.363281 305.648438 131.378906 297.570312 C 130.886719 297.34375 130.480469 297.058594 130.480469 296.417969 C 130.570312 295.523438 131.28125 295.574219 131.867188 295.585938 C 133.664062 295.585938 135.542969 295.585938 137.371094 295.800781 C 145.359375 296.589844 153.339844 297.480469 161.371094 297.828125 C 167.417969 297.988281 173.417969 298.625 179.363281 299.734375 C 183.761719 300.628906 188.171875 301.527344 192.570312 302.425781 C 190.863281 300.683594 188.984375 299.152344 186.929688 297.839844 C 182.1875 294.714844 177.214844 291.875 173.4375 287.539062 C 171.230469 285.023438 169.34375 283.8125 165.582031 285.222656 C 159.148438 287.621094 152.449219 285.914062 145.871094 284.835938 C 138.441406 283.625 131 282.464844 124.523438 278.21875 C 123.625 277.625 122.070312 277.257812 122.445312 275.902344 C 122.824219 274.546875 124.246094 275.265625 125.234375 275.253906 C 133.664062 275.253906 142.101562 275.253906 150.53125 275.253906 L 150.585938 274.355469 C 147.320312 273.460938 144.082031 272.5625 140.796875 271.734375 C 132.441406 269.75 125.046875 266.050781 119.027344 259.828125 C 116.328125 257.0625 113.628906 254.316406 111.003906 251.539062 C 110.355469 250.867188 109.332031 250.222656 109.886719 249.125 C 110.519531 247.878906 111.804688 248.40625 112.714844 248.632812 C 121.710938 250.832031 130.703125 252.96875 139.171875 256.777344 C 143.34375 258.652344 147.492188 260.582031 151.648438 262.585938 C 148.339844 258.785156 145.796875 254.523438 144.027344 249.808594 C 143.183594 247.9375 141.902344 246.441406 140.1875 245.316406 C 134.382812 240.925781 128.367188 236.929688 121.492188 234.335938 C 119.597656 233.582031 117.8125 232.621094 116.140625 231.453125 C 105.820312 224.539062 98.679688 214.753906 92.597656 204.121094 C 91.976562 203.042969 91.394531 201.660156 92.382812 200.71875 C 93.550781 199.605469 94.703125 200.898438 95.601562 201.542969 C 100.578125 205.136719 105.875 208.160156 111.15625 211.242188 C 112.109375 211.796875 112.578125 212.246094 113.117188 210.65625 C 113.222656 210.347656 113.347656 210.050781 113.496094 209.757812 C 113.640625 209.464844 113.804688 209.183594 113.984375 208.914062 C 114.167969 208.644531 114.367188 208.386719 114.582031 208.140625 C 114.800781 207.898438 115.03125 207.667969 115.277344 207.453125 C 115.523438 207.238281 115.78125 207.042969 116.054688 206.863281 C 116.324219 206.683594 116.609375 206.519531 116.902344 206.378906 C 117.195312 206.234375 117.496094 206.109375 117.804688 206.007812 C 118.113281 205.902344 118.429688 205.820312 118.75 205.757812 C 119.070312 205.695312 119.394531 205.652344 119.71875 205.632812 C 120.046875 205.609375 120.371094 205.613281 120.695312 205.632812 C 121.023438 205.65625 121.34375 205.699219 121.664062 205.761719 C 121.984375 205.828125 122.300781 205.914062 122.609375 206.019531 C 122.917969 206.125 123.21875 206.25 123.511719 206.394531 C 123.804688 206.539062 124.085938 206.703125 124.355469 206.882812 C 124.628906 207.066406 124.886719 207.265625 125.128906 207.480469 C 125.375 207.695312 125.605469 207.925781 125.820312 208.171875 C 127.65625 210.191406 129.144531 212.441406 130.285156 214.917969 C 131.425781 217.394531 132.167969 219.984375 132.511719 222.691406 C 132.585938 224.035156 133.089844 225.191406 134.023438 226.164062 Z M 134.824219 237.667969 L 134.671875 237.613281 L 134.132812 237.019531 C 133.285156 236.023438 132.386719 235.074219 131.585938 234.039062 C 128.996094 230.699219 126.53125 227.503906 122.058594 226.09375 C 118.003906 224.816406 115.554688 221.199219 113.964844 217.277344 C 113.335938 215.699219 112.289062 214.476562 110.824219 213.613281 C 105.695312 210.324219 100.246094 207.542969 95.476562 203.734375 C 94.9375 204.050781 95.179688 204.417969 95.324219 204.632812 C 100.972656 213.269531 107.019531 221.578125 115.539062 227.699219 C 117.875 229.394531 120.371094 230.808594 123.023438 231.949219 C 126.765625 233.535156 130.445312 235.261719 134.140625 236.929688 L 134.609375 237.578125 Z M 162.136719 270.703125 L 161.984375 270.648438 L 161.382812 270.117188 L 160.878906 269.617188 L 160.363281 269.09375 C 159.347656 266.839844 157.523438 265.164062 156.082031 263.214844 C 153.113281 259.316406 150.414062 255.242188 147.984375 250.984375 C 147.625 250.347656 147.417969 249.519531 146.574219 249.285156 C 146.378906 249.5 146.269531 249.75 146.246094 250.035156 C 146.21875 250.324219 146.285156 250.589844 146.4375 250.832031 C 149.726562 257.535156 154.066406 263.472656 159.457031 268.644531 C 159.734375 268.835938 160.03125 268.972656 160.355469 269.058594 L 161.363281 270.082031 C 161.550781 270.273438 161.730469 270.46875 161.910156 270.65625 Z M 141.042969 240.324219 L 140.953125 240.226562 L 140.5 239.105469 L 139.90625 238.160156 L 139.808594 238.054688 L 139.890625 238.152344 C 140.085938 238.476562 139.980469 239.050781 140.554688 239.050781 C 140.464844 239.265625 140.457031 239.484375 140.53125 239.707031 C 140.605469 239.925781 140.742188 240.097656 140.941406 240.21875 Z M 105.625 163.652344 L 105.757812 163.652344 C 105.914062 164.019531 106.066406 164.378906 106.226562 164.746094 C 109.988281 173.464844 114.117188 182.003906 119.722656 189.71875 C 122.417969 193.410156 126.332031 195.546875 130.515625 197.414062 C 131.578125 195.078125 131.183594 193.15625 129.96875 191.046875 C 125.46875 183.242188 118.832031 177.238281 112.722656 170.796875 C 110.6875 168.660156 108.476562 166.675781 106.351562 164.621094 L 105.742188 163.632812 Z M 233.160156 322.855469 L 232.78125 322.613281 C 232.59375 322.394531 232.363281 322.238281 232.09375 322.140625 C 231.820312 322.046875 231.546875 322.023438 231.261719 322.074219 C 229.191406 320.277344 226.449219 319.835938 224.128906 318.480469 C 220.214844 316.21875 216.183594 314.164062 212.199219 312.027344 C 211.757812 311.78125 211.21875 311.351562 210.832031 311.945312 C 210.445312 312.539062 211.066406 312.84375 211.480469 313.128906 C 213.917969 314.628906 216.246094 316.398438 218.855469 317.519531 C 222.90625 319.253906 227.140625 320.527344 231.296875 322.011719 C 231.628906 322.683594 232.339844 322.308594 232.816406 322.558594 Z M 138.558594 153.144531 L 138.773438 153.808594 C 138.882812 154.609375 139 155.398438 139.117188 156.234375 C 139.234375 155.335938 139.414062 154.5625 138.765625 153.863281 C 138.695312 153.648438 138.628906 153.414062 138.558594 153.171875 Z M 202.601562 307.535156 L 203.03125 307.8125 L 206.902344 309.441406 C 205.839844 308.15625 204.417969 307.992188 202.988281 307.859375 Z M 164.71875 275.445312 L 164.71875 275.355469 C 163.414062 274.574219 162.515625 273.199219 160.949219 272.777344 L 160.824219 272.722656 L 160.921875 272.722656 C 162.09375 273.703125 162.570312 275.6875 164.683594 275.28125 Z M 192.515625 295.414062 L 192.410156 295.316406 C 191.328125 292.898438 189.234375 291.257812 187.667969 289.21875 C 186.769531 288.042969 186.039062 289.128906 184.824219 289.351562 L 192.425781 295.351562 Z M 136.957031 235.726562 C 136.957031 235.683594 136.957031 235.601562 136.957031 235.585938 C 136.894531 235.5625 136.828125 235.546875 136.757812 235.539062 C 136.832031 231.949219 134.058594 229.925781 132.1875 227.386719 C 131.695312 226.703125 131.15625 227.007812 130.613281 227.386719 C 130.074219 227.761719 130.164062 228.285156 130.542969 228.679688 C 132.585938 230.996094 134.214844 233.699219 136.839844 235.511719 Z M 140.554688 234.5625 L 140.554688 234.355469 C 137.6875 226.09375 136.042969 217.601562 135.617188 208.871094 C 135.519531 207.300781 135.75 205.558594 133.539062 204.253906 C 133.988281 208.746094 134.222656 212.769531 134.84375 216.753906 C 135.5 221.039062 136.460938 225.277344 137.414062 229.503906 C 137.585938 230.492188 137.945312 231.402344 138.492188 232.234375 C 139.042969 233.070312 139.734375 233.761719 140.574219 234.308594 Z M 200.433594 304.761719 L 200.308594 304.761719 C 190.84375 297.882812 181.414062 290.914062 173.128906 282.636719 C 172.699219 282.207031 172.230469 281.398438 171.429688 282.242188 C 170.628906 283.085938 171.429688 283.460938 171.878906 283.921875 C 175.40625 287.828125 179.375 291.214844 183.789062 294.085938 C 188.320312 296.878906 192.617188 299.988281 196.691406 303.414062 C 197.753906 304.226562 198.953125 304.679688 200.289062 304.769531 Z M 215.679688 70.578125 C 219.277344 66.339844 221.484375 61.375 223.300781 56.214844 C 224.59375 52.488281 226.070312 48.8125 227.472656 45.125 L 227.617188 45.125 L 227.511719 45.125 C 226.167969 46.199219 224.9375 47.390625 223.820312 48.699219 C 222.699219 50.003906 221.710938 51.402344 220.851562 52.890625 C 219.996094 54.382812 219.28125 55.9375 218.714844 57.558594 C 218.148438 59.183594 217.738281 60.84375 217.480469 62.542969 C 216.8125 66.53125 214.078125 69.726562 211.875 73.023438 C 211.808594 73.050781 211.746094 73.082031 211.6875 73.121094 C 211.6875 73.121094 211.6875 73.210938 211.6875 73.253906 C 211.6875 73.300781 211.785156 73.078125 211.839844 72.988281 C 212.621094 72.867188 213.347656 72.601562 214.019531 72.183594 C 214.691406 71.765625 215.25 71.230469 215.699219 70.578125 Z M 157.144531 178.539062 C 158.789062 177.9375 160.390625 176.984375 162.882812 177.640625 C 158.738281 180.605469 153.976562 181.851562 150.972656 185.605469 C 154.769531 186.449219 166.660156 183.574219 171.554688 180.640625 C 177.511719 177.046875 181.089844 172.988281 185.714844 164.359375 C 175.289062 168.597656 164.773438 171.730469 155.445312 177.632812 C 153.242188 179.101562 151.371094 180.914062 149.832031 183.0625 L 149.777344 183.152344 L 149.867188 183.039062 C 152.402344 181.71875 154.417969 179.535156 157.144531 178.539062 Z M 115.140625 251.683594 L 115.214844 251.78125 C 122.410156 260.3125 130.894531 266.761719 142.203125 269.140625 C 147.960938 270.351562 153.574219 272.292969 159.636719 274.015625 C 157.910156 271.320312 156.59375 268.726562 153.96875 267.09375 C 143.425781 260.554688 131.875 256.453125 120.0625 252.949219 C 118.488281 252.472656 116.859375 252.160156 115.257812 251.773438 Z M 188.703125 311.46875 C 192.910156 311.515625 196.988281 310.398438 201.179688 309.824219 C 197.480469 305.660156 192.410156 304.867188 187.40625 303.765625 C 177.066406 301.570312 166.613281 300.324219 156.046875 300.019531 C 151.289062 299.839844 146.554688 299.042969 141.804688 298.53125 C 156.773438 305.648438 172.003906 311.289062 188.703125 311.46875 Z M 189.90625 254.351562 C 190.140625 264.832031 189.152344 275.328125 191.542969 285.625 C 192.796875 291.015625 195.296875 295.65625 199.785156 298.898438 C 202.636719 282.691406 197.105469 268.359375 189.90625 254.351562 Z M 198.238281 120.378906 C 192.957031 120.378906 187.890625 118.988281 182.703125 118.511719 C 175.9375 117.882812 169.746094 119.964844 163.164062 123.054688 C 170.277344 123.898438 176.378906 126.234375 182.710938 127.542969 C 189.242188 128.945312 195.304688 127.878906 200.703125 123.628906 C 202.664062 122.085938 204.847656 120.828125 207.46875 119.085938 C 203.976562 119.480469 201.1875 120.378906 198.238281 120.378906 Z M 149.199219 230.878906 C 151.753906 227.117188 155.75 225.328125 159.421875 223.066406 C 161.453125 221.820312 163.359375 220.265625 164.179688 217.992188 C 166.644531 211.214844 170.117188 204.8125 171.636719 197.699219 C 171.707031 197.386719 171.71875 197.0625 171.78125 196.613281 C 160.347656 205.683594 151.78125 216.628906 149.199219 230.878906 Z M 170.195312 148.019531 C 170.269531 148.277344 170.339844 148.546875 170.402344 148.816406 L 153.652344 153.78125 C 169.757812 155.039062 181.667969 151.988281 194.207031 143.269531 C 180.515625 141.929688 167.164062 143.007812 154.824219 150.910156 C 160.3125 150.09375 164.878906 146.878906 170.195312 148.019531 Z M 138.628906 146.472656 C 137.964844 142.5625 136.847656 138.785156 135.273438 135.140625 C 133.3125 130.589844 131.335938 126.046875 129.777344 121.332031 C 129.613281 120.640625 129.28125 120.042969 128.789062 119.535156 C 124.976562 116.382812 121.492188 112.800781 117.203125 110.242188 C 120.125 124.867188 129.402344 135.644531 138.628906 146.472656 Z M 139.054688 137.269531 C 140.617188 124.152344 137.308594 112.550781 129.507812 101.792969 C 129.183594 114.765625 134.3125 125.847656 139.027344 137.269531 Z M 215.25 295.96875 C 216.734375 296.507812 216.734375 296.507812 218.675781 301.207031 C 219.574219 289.316406 219.125 278.226562 212.972656 267.253906 C 213.289062 279.988281 212 292.136719 217.101562 303.621094 C 216.464844 301.078125 215.84375 298.546875 215.222656 295.96875 Z M 165.878906 280.976562 C 164.738281 279.261719 163.539062 277.902344 161.246094 277.878906 C 156.75 277.878906 152.339844 277.570312 147.886719 277.570312 C 141.679688 277.570312 135.480469 277.453125 129.257812 277.222656 C 136.136719 281.550781 158.90625 283.804688 165.851562 280.976562 Z M 174.46875 227.621094 C 171.292969 231.820312 165.304688 255.394531 165.976562 261.003906 C 172.90625 250.964844 177.636719 240.136719 174.441406 227.621094 Z M 204.902344 97.742188 C 201.523438 97.9375 198.324219 97.273438 195.304688 95.75 C 194.046875 95.125 192.714844 94.765625 191.308594 94.671875 C 189.90625 94.582031 188.539062 94.761719 187.207031 95.21875 C 194.074219 97.300781 200.046875 101.566406 207.125 103.003906 C 213.332031 104.28125 218.820312 101.65625 224.390625 99.519531 C 217.792969 99.628906 211.425781 97.5625 204.902344 97.742188 Z M 167.023438 99.871094 C 171.382812 95.074219 173.011719 88.691406 171.71875 81.382812 C 171.132812 77.570312 170.230469 73.835938 169.019531 70.175781 C 165.988281 80.144531 164.808594 89.847656 167.023438 99.871094 Z M 152.042969 91.070312 C 148.902344 95.902344 147.894531 107.476562 149.039062 126.863281 C 151.683594 114.765625 154.273438 103.085938 152.042969 91.070312 Z M 128.472656 220.050781 C 128.609375 219.988281 128.402344 219.089844 128.277344 218.605469 C 127.515625 215.710938 126.261719 213.046875 124.515625 210.613281 C 123.382812 209.015625 120.53125 208.566406 118.328125 209.4375 C 116.121094 210.308594 116.140625 211.96875 116.339844 213.765625 C 116.453125 214.675781 116.882812 215.402344 117.632812 215.9375 C 120.6875 218.300781 123.5625 220.871094 126.253906 223.640625 C 126.378906 223.832031 126.535156 223.992188 126.722656 224.125 C 126.90625 224.253906 127.113281 224.347656 127.335938 224.402344 C 127.558594 224.453125 127.78125 224.464844 128.007812 224.433594 C 128.234375 224.402344 128.445312 224.328125 128.644531 224.214844 C 128.410156 222.742188 125.40625 221.53125 128.472656 220.050781 Z M 248.382812 75.257812 C 245.890625 74.867188 243.386719 74.683594 240.867188 74.710938 C 238.347656 74.738281 235.847656 74.96875 233.367188 75.410156 C 230.886719 75.855469 228.460938 76.496094 226.085938 77.34375 C 223.710938 78.1875 221.425781 79.222656 219.226562 80.449219 C 229.542969 81.9375 238.828125 79.566406 248.382812 75.257812 Z M 228.519531 64.574219 C 237.585938 59.320312 247.058594 55.808594 254.894531 49.019531 C 253.566406 49.082031 252.242188 49.222656 250.929688 49.445312 C 249.617188 49.667969 248.324219 49.96875 247.050781 50.347656 C 245.773438 50.726562 244.527344 51.183594 243.304688 51.714844 C 242.085938 52.246094 240.902344 52.847656 239.757812 53.523438 C 238.609375 54.199219 237.511719 54.941406 236.453125 55.75 C 235.398438 56.558594 234.394531 57.429688 233.445312 58.359375 C 232.496094 59.289062 231.609375 60.277344 230.777344 61.316406 C 229.949219 62.355469 229.1875 63.441406 228.492188 64.574219 Z M 214.484375 326.617188 C 208.269531 324.453125 188.585938 326.078125 181.65625 329.375 C 193.011719 330.910156 203.570312 328.464844 214.484375 326.617188 Z M 118.839844 146.238281 C 120.738281 157.070312 123.425781 167.035156 128.5625 176.222656 C 126.9375 165.894531 125.53125 155.535156 118.839844 146.238281 Z M 177.1875 99.863281 C 178.886719 98.15625 178.375 95.992188 178.085938 93.953125 C 177.988281 93.21875 177.257812 93.054688 176.636719 93.304688 C 175.871094 93.503906 175.175781 93.851562 174.550781 94.339844 C 172.4375 96.429688 171.519531 99.324219 169.585938 101.628906 C 167.652344 103.9375 167.453125 107.019531 167.695312 110.042969 C 170.558594 106.253906 173.929688 103.121094 177.1875 99.863281 Z M 188.433594 85.988281 C 193.9375 78.085938 196.132812 69.054688 197.617188 59.472656 C 191.632812 67.554688 189.78125 76.675781 188.433594 85.988281 Z M 182.234375 284.972656 C 182.820312 285.320312 183.601562 285.753906 184.175781 285.292969 C 184.960938 284.65625 184.058594 284.035156 183.789062 283.5 C 182.207031 280.320312 180.371094 277.277344 179.175781 273.910156 C 178.644531 272.425781 177.25 271.691406 175.980469 270.964844 C 174.855469 270.324219 174.109375 270.628906 174.253906 272.148438 C 175.308594 277.402344 177.386719 282.007812 182.234375 284.972656 Z M 278.6875 334.554688 C 281.640625 334.777344 284.570312 335.09375 287.523438 335.335938 C 288.097656 335.390625 288.96875 336.054688 289.105469 334.84375 C 289.242188 333.628906 288.476562 333.585938 287.601562 333.648438 C 287.429688 333.640625 287.253906 333.640625 287.082031 333.648438 C 280.109375 334.957031 273.585938 332.113281 266.921875 331.222656 L 265.210938 331 C 269.464844 333.089844 273.957031 334.273438 278.6875 334.554688 Z M 168.433594 279.503906 C 168.820312 279.234375 169.386719 278.992188 168.855469 278.324219 C 167.875 277.113281 167.128906 278.09375 166.15625 278.480469 C 166.859375 279.261719 167.21875 280.355469 168.433594 279.503906 Z M 168.433594 279.503906 " fill-opacity="1" fill-rule="nonzero"/></g><path fill="#000000" d="M 121.539062 215.316406 C 122.5625 215.316406 123.210938 214.96875 123.238281 213.988281 C 123.265625 213.011719 122.691406 212.28125 121.65625 212.410156 C 120.753906 212.515625 119.441406 212.625 119.378906 213.683594 C 119.261719 215.003906 120.78125 214.851562 121.539062 215.316406 Z M 121.539062 215.316406 " fill-opacity="1" fill-rule="nonzero"/></svg>